<svg width="37" height="36" viewBox="0 0 37 36" fill="none" xmlns="http://www.w3.org/2000/svg">
<path d="M32.1891 11.7H24.0891C23.6117 11.7 23.1538 11.5103 22.8163 11.1728C22.4787 10.8352 22.2891 10.3774 22.2891 9.89999C22.2891 9.4226 22.4787 8.96477 22.8163 8.6272C23.1538 8.28964 23.6117 8.09999 24.0891 8.09999H30.3891V1.8C30.3891 1.32261 30.5788 0.864773 30.9163 0.527207C31.2539 0.189642 31.7117 0 32.1891 0C32.6665 0 33.1244 0.189642 33.4619 0.527207C33.7995 0.864773 33.9891 1.32261 33.9891 1.8V9.89999C33.9892 10.1364 33.9427 10.3705 33.8522 10.5889C33.7618 10.8073 33.6292 11.0058 33.4621 11.1729C33.2949 11.3401 33.0964 11.4727 32.878 11.5631C32.6596 11.6535 32.4255 11.7001 32.1891 11.7Z" fill="#00B5E4"/>
<path d="M18.0149 36C14.8547 36.0026 11.7495 35.1732 9.01154 33.5951C6.27356 32.017 3.99929 29.7459 2.41741 27.0102C0.835525 24.2744 0.00178043 21.1703 2.84838e-06 18.0101C-0.00177474 14.8499 0.828477 11.7449 2.40728 9.00738C3.98609 6.26981 6.2578 3.99615 8.994 2.415C11.7302 0.833846 14.8345 0.000931523 17.9947 7.80902e-07C21.1549 -0.000929961 24.2596 0.830156 26.9968 2.4097C29.7339 3.98924 32.0069 6.26156 33.5874 8.99819C33.8265 9.41125 33.8918 9.9024 33.7689 10.3636C33.6459 10.8248 33.3448 11.2182 32.9317 11.4574C32.5187 11.6966 32.0275 11.7619 31.5663 11.6389C31.1052 11.516 30.7117 11.2148 30.4725 10.8018C28.7217 7.78461 25.934 5.50666 22.6284 4.39224C19.3229 3.27782 15.7249 3.40291 12.5047 4.74421C9.28457 6.08551 6.66172 8.55157 5.12471 11.6831C3.58771 14.8146 3.24135 18.398 4.15015 21.7659C5.05895 25.1338 7.16094 28.0565 10.0646 29.9897C12.9683 31.9229 16.4757 32.7348 19.9335 32.2741C23.3913 31.8134 26.5637 30.1115 28.8599 27.4855C31.1562 24.8595 32.4196 21.4883 32.4149 18C32.4149 17.5226 32.6045 17.0648 32.9421 16.7272C33.2797 16.3896 33.7375 16.2 34.2149 16.2C34.6923 16.2 35.1501 16.3896 35.4877 16.7272C35.8253 17.0648 36.0149 17.5226 36.0149 18C36.0094 22.7722 34.1113 27.3474 30.7368 30.7219C27.3623 34.0964 22.7871 35.9945 18.0149 36V36Z" fill="#00B5E4"/>
</svg>
