<svg width="40" height="39" viewBox="0 0 40 39" fill="none" xmlns="http://www.w3.org/2000/svg">
<path d="M37.6468 14.9004C37.5139 14.7075 37.4491 14.4792 37.4619 14.2488L37.6544 10.9182C37.6825 10.4308 37.561 9.94624 37.3046 9.52367C37.0482 9.10111 36.6681 8.75887 36.2108 8.53883L33.1042 7.04402C32.8886 6.94083 32.7136 6.77414 32.6053 6.56871L31.036 3.60923C30.8051 3.17357 30.4458 2.81149 30.0022 2.5673C29.5586 2.32311 29.0499 2.2074 28.5384 2.23433L25.042 2.41773C24.8002 2.42966 24.5607 2.36798 24.3582 2.24159L21.4509 0.415238C21.0204 0.144392 20.5158 0 19.9999 0C19.484 0 18.9795 0.144392 18.549 0.415238L15.6412 2.24159C15.4387 2.36817 15.1991 2.42988 14.9573 2.41773L11.4614 2.23433C10.9498 2.20766 10.4411 2.32351 9.99753 2.56772C9.55394 2.81193 9.19461 3.17393 8.96344 3.6095L7.39422 6.56898C7.2859 6.77441 7.11092 6.9411 6.89527 7.04429L3.78865 8.53909C3.33137 8.75918 2.95133 9.10145 2.69501 9.52403C2.43869 9.94661 2.31719 10.4312 2.34538 10.9185L2.5379 14.249C2.55064 14.4794 2.4859 14.7076 2.3531 14.9005L0.435841 17.6703C0.151554 18.0805 0 18.5611 0 19.0526C0 19.5441 0.151554 20.0247 0.435841 20.4348L2.35301 23.2048C2.48586 23.3977 2.55063 23.626 2.5379 23.8564L2.34538 27.1867C2.31716 27.6741 2.43867 28.1587 2.69505 28.5814C2.95143 29.004 3.33156 29.3463 3.78893 29.5664L6.89556 31.0612C7.11121 31.1644 7.28618 31.331 7.3945 31.5365L8.96372 34.496C9.19472 34.9316 9.55396 35.2936 9.99752 35.5378C10.4411 35.7821 10.9497 35.8978 11.4613 35.871L14.9576 35.6876C15.1994 35.6756 15.439 35.7373 15.6415 35.8638L18.5492 37.6901C18.9797 37.961 19.4842 38.1053 20.0001 38.1053C20.516 38.1053 21.0206 37.961 21.4511 37.6901L24.3586 35.8636C24.5611 35.737 24.8007 35.6753 25.0425 35.6875L28.5388 35.8709C29.0503 35.8978 29.5591 35.7821 30.0026 35.5379C30.4462 35.2936 30.8054 34.9315 31.0363 34.4958L32.6055 31.5363C32.7139 31.3309 32.8888 31.1642 33.1045 31.061L36.2111 29.5662C36.6684 29.3461 37.0485 29.0038 37.3048 28.5812C37.5611 28.1586 37.6826 27.674 37.6544 27.1867L37.4619 23.8562C37.4491 23.6258 37.5139 23.3976 37.6467 23.2047L39.5639 20.4346C39.8482 20.0245 39.9998 19.5438 39.9998 19.0523C39.9998 18.5608 39.8482 18.0802 39.5639 17.6701L37.6468 14.9004ZM38.3065 19.6449L36.3891 22.4151C36.0792 22.8652 35.9281 23.3977 35.9579 23.9353L36.1504 27.2659C36.1625 27.4747 36.1104 27.6824 36.0005 27.8635C35.8906 28.0446 35.7277 28.1913 35.5317 28.2856L32.4251 29.7804C31.9218 30.0212 31.5135 30.4101 31.2607 30.8895L29.6915 33.849C29.5928 34.0359 29.4389 34.1912 29.2487 34.2959C29.0586 34.4006 28.8404 34.4501 28.6211 34.4383L25.1249 34.255C24.5606 34.2265 24.0015 34.3704 23.5291 34.6658L20.6212 36.492C20.4367 36.6081 20.2205 36.67 19.9995 36.67C19.7784 36.67 19.5622 36.6081 19.3777 36.492L16.4703 34.6661C16.0383 34.3961 15.533 34.252 15.0164 34.2515C14.9691 34.2515 14.9218 34.2527 14.8745 34.2553L11.3782 34.4386C11.159 34.4503 10.9409 34.4007 10.7508 34.296C10.5606 34.1914 10.4067 34.0361 10.3079 33.8493L8.73864 30.8898C8.48589 30.4104 8.07761 30.0214 7.5744 29.7806L4.46777 28.2858C4.27177 28.1915 4.10886 28.0448 3.99898 27.8637C3.8891 27.6826 3.83701 27.4749 3.84908 27.266L4.0416 23.9354C4.07139 23.3978 3.92027 22.8652 3.61025 22.4152L1.69327 19.645C1.57145 19.4693 1.50651 19.2633 1.50651 19.0526C1.50651 18.842 1.57145 18.636 1.69327 18.4603L3.61063 15.6901C3.92059 15.24 4.07168 14.7074 4.04188 14.1699L3.84937 10.8393C3.8373 10.6305 3.88939 10.4228 3.99927 10.2417C4.10915 10.0605 4.27205 9.91387 4.46806 9.81956L7.57468 8.32476C8.07792 8.08399 8.48623 7.69505 8.73901 7.21567L10.3082 4.25619C10.4071 4.06943 10.5611 3.9142 10.7512 3.80953C10.9413 3.70486 11.1594 3.65529 11.3786 3.6669L14.8749 3.85021C15.4391 3.87849 15.9982 3.73457 16.4707 3.43938L19.3786 1.6132C19.563 1.49712 19.7792 1.43523 20.0003 1.43523C20.2213 1.43523 20.4375 1.49712 20.622 1.6132L23.5298 3.43956C24.0022 3.73495 24.5612 3.87888 25.1255 3.85038L28.6218 3.66708C28.8411 3.65539 29.0591 3.70493 29.2493 3.80961C29.4394 3.91428 29.5933 4.06956 29.6922 4.25637L31.2614 7.21585C31.5141 7.69524 31.9224 8.08422 32.4256 8.32503L35.5323 9.81983C35.7283 9.91413 35.8912 10.0608 36.0011 10.2419C36.1109 10.423 36.163 10.6307 36.151 10.8396L35.9584 14.1703C35.9287 14.7078 36.0798 15.2404 36.3898 15.6904L38.307 18.4604C38.4287 18.6362 38.4935 18.8422 38.4934 19.0528C38.4933 19.2633 38.4283 19.4692 38.3065 19.6449Z" fill="url(#paint0_linear_1028_27110)"/>
<path d="M13.4099 15.4746C13.026 15.4746 12.5627 15.6044 12.5627 15.97V19.0475L11.0153 16.2465C10.6262 15.5344 10.4042 15.4746 9.8168 15.4746C9.40258 15.4746 8.98535 15.6307 8.98535 15.9796V22.0674C8.98535 22.4145 9.43186 22.5725 9.83261 22.5725C10.2334 22.5725 10.6799 22.4145 10.6799 22.0674V18.9824L12.4849 22.1463C12.6989 22.5218 13.0802 22.5723 13.4135 22.5723C13.8142 22.5723 14.2572 22.4143 14.2572 22.0673V15.97C14.2572 15.6044 13.7937 15.4746 13.4099 15.4746Z" fill="url(#paint1_linear_1028_27110)"/>
<path d="M20.327 16.8998C20.6333 16.8998 20.847 16.5887 20.847 16.1727C20.847 15.8307 20.6863 15.4648 20.327 15.4648H16.7441C16.3918 15.4648 16.0459 15.6324 16.0459 15.9794V22.0674C16.0459 22.4145 16.3918 22.5498 16.7441 22.5498H20.327C20.6863 22.5498 20.847 22.2288 20.847 21.8868C20.847 21.4708 20.6333 21.2046 20.327 21.2046H17.6463V19.6799H19.1393C19.497 19.6799 19.6594 19.3557 19.6594 19.0618C19.6594 18.7489 19.4806 18.4244 19.1393 18.4244H17.6463V16.8998H20.327Z" fill="url(#paint2_linear_1028_27110)"/>
<path d="M29.9578 15.4746C29.6642 15.4746 29.4694 15.5848 29.4094 15.7847L27.9301 20.541L27.1758 17.466C27.1071 17.1717 26.7126 17.0377 26.375 17.0377C26.0374 17.0377 25.6428 17.1717 25.5743 17.4655L24.8199 20.541L23.3408 15.7856C23.2808 15.5854 23.0859 15.4751 22.7923 15.4751C22.3106 15.4751 21.7285 15.7602 21.7285 16.1143C21.7287 16.1613 21.7363 16.208 21.7511 16.2528L23.7537 22.1006C23.8826 22.4918 24.4169 22.6305 24.8352 22.6305C25.3003 22.6305 25.8092 22.4656 25.8976 22.0967L26.375 20.0242L26.8524 22.0972C26.9408 22.4656 27.4497 22.6305 27.9148 22.6305C28.4558 22.6305 28.8802 22.423 28.9959 22.1014L30.9989 16.2527C31.0136 16.2078 31.0211 16.161 31.0214 16.1139C31.0214 15.7598 30.4396 15.4746 29.9578 15.4746Z" fill="url(#paint3_linear_1028_27110)"/>
<defs>
<linearGradient id="paint0_linear_1028_27110" x1="19.9999" y1="-2.8296" x2="19.9999" y2="40.2476" gradientUnits="userSpaceOnUse">
<stop stop-color="#00EFD1"/>
<stop offset="1" stop-color="#00ACEA"/>
</linearGradient>
<linearGradient id="paint1_linear_1028_27110" x1="889.384" y1="100.649" x2="889.384" y2="3510.03" gradientUnits="userSpaceOnUse">
<stop stop-color="#00EFD1"/>
<stop offset="1" stop-color="#00ACEA"/>
</linearGradient>
<linearGradient id="paint2_linear_1028_27110" x1="1165.92" y1="100.484" x2="1165.92" y2="3503.65" gradientUnits="userSpaceOnUse">
<stop stop-color="#00EFD1"/>
<stop offset="1" stop-color="#00ACEA"/>
</linearGradient>
<linearGradient id="paint3_linear_1028_27110" x1="3029.99" y1="101.345" x2="3029.99" y2="3538.58" gradientUnits="userSpaceOnUse">
<stop stop-color="#00EFD1"/>
<stop offset="1" stop-color="#00ACEA"/>
</linearGradient>
</defs>
</svg>
