<svg width="112" height="37" viewBox="0 0 112 37" fill="none" xmlns="http://www.w3.org/2000/svg">
    <g clip-path="url(#clip0_2924_858)">
        <path
            d="M103.082 0.00024232H8.92499C8.58178 0.00024232 8.24268 0.00024232 7.90038 0.00209232C7.61384 0.00394232 7.32958 0.00931657 7.04028 0.0138398C6.4118 0.021149 5.7848 0.0757929 5.16473 0.177297C4.54552 0.28101 3.94571 0.476539 3.38559 0.757272C2.82615 1.04038 2.31498 1.40825 1.87061 1.84753C1.42391 2.28558 1.05155 2.79191 0.76785 3.34704C0.483367 3.90107 0.286106 4.49476 0.182879 5.10761C0.0786709 5.71969 0.0225956 6.33882 0.0151563 6.95946C0.00647061 7.24307 0.00555338 7.52761 0.000976562 7.81126V29.1919C0.00555338 29.4792 0.00647061 29.7574 0.0151563 30.0447C0.0225979 30.6653 0.0786732 31.2844 0.182879 31.8965C0.285821 32.5097 0.483094 33.1037 0.76785 33.6579C1.05142 34.2113 1.42383 34.7156 1.87061 35.1512C2.31329 35.5924 2.8248 35.9605 3.38559 36.2415C3.94571 36.5229 4.54545 36.7196 5.16473 36.825C5.78491 36.9256 6.41184 36.9803 7.04028 36.9885C7.32958 36.9948 7.61384 36.9984 7.90038 36.9984C8.24267 37.0002 8.5818 37.0002 8.92499 37.0002H103.082C103.418 37.0002 103.76 37.0002 104.097 36.9984C104.382 36.9984 104.674 36.9948 104.959 36.9885C105.587 36.9807 106.212 36.9261 106.831 36.825C107.453 36.7189 108.054 36.5223 108.617 36.2415C109.178 35.9604 109.689 35.5923 110.131 35.1512C110.577 34.7138 110.95 34.2099 111.237 33.6579C111.519 33.1033 111.715 32.5093 111.816 31.8965C111.921 31.2843 111.979 30.6654 111.99 30.0447C111.994 29.7574 111.994 29.4792 111.994 29.1919C112.001 28.8559 112.001 28.5217 112.001 28.1802V8.82116C112.001 8.48242 112.001 8.14638 111.994 7.81126C111.994 7.52761 111.994 7.24307 111.99 6.95942C111.979 6.33873 111.921 5.71974 111.816 5.10757C111.715 4.49508 111.519 3.90143 111.237 3.347C110.659 2.2343 109.743 1.32857 108.617 0.757188C108.054 0.477142 107.453 0.281665 106.831 0.177213C106.213 0.0752624 105.587 0.0205995 104.959 0.0137103C104.674 0.00919632 104.382 0.00377582 104.097 0.00197207C103.76 0.00012207 103.418 0.00012207 103.082 0.00012207V0.00024232Z"
            fill="#A6A6A6" />
        <path
            d="M7.90523 36.1907C7.62006 36.1907 7.34179 36.1871 7.05886 36.1808C6.47275 36.1733 5.888 36.1228 5.30943 36.0299C4.76994 35.9381 4.24731 35.7673 3.7588 35.5231C3.27476 35.281 2.83328 34.9635 2.45127 34.5828C2.06373 34.2066 1.74108 33.7702 1.49612 33.291C1.24846 32.8087 1.07706 32.2917 0.987898 31.7581C0.891611 31.1847 0.839516 30.6049 0.832062 30.0237C0.826128 29.8286 0.818359 29.1791 0.818359 29.1791V7.81109C0.818359 7.81109 0.826633 7.17153 0.832109 6.98364C0.839246 6.40337 0.891038 5.82448 0.987037 5.25197C1.07636 4.71688 1.24789 4.19842 1.49569 3.71453C1.73975 3.23567 2.06061 2.79899 2.44581 2.42143C2.83059 2.04027 3.27348 1.72113 3.75834 1.47564C4.24573 1.23226 4.76737 1.06265 5.30577 0.972498C5.88625 0.878672 6.47302 0.827945 7.06116 0.820743L7.90569 0.809448H104.092L104.947 0.821196C105.53 0.82804 106.111 0.878314 106.686 0.971591C107.23 1.06288 107.757 1.23367 108.25 1.47835C109.221 1.97309 110.012 2.7558 110.51 3.71679C110.754 4.19733 110.923 4.71157 111.011 5.24204C111.109 5.81924 111.163 6.40268 111.174 6.98771C111.177 7.24967 111.177 7.53105 111.177 7.81109C111.184 8.15796 111.184 8.48812 111.184 8.82099V28.18C111.184 28.5161 111.184 28.844 111.177 29.1746C111.177 29.4754 111.177 29.7509 111.173 30.0345C111.162 30.6091 111.109 31.1822 111.013 31.749C110.926 32.2865 110.755 32.8075 110.508 33.2938C110.261 33.7678 109.94 34.2003 109.557 34.5756C109.175 34.9583 108.733 35.2777 108.247 35.5214C107.756 35.7674 107.23 35.9389 106.686 36.0299C106.108 36.1233 105.523 36.1738 104.937 36.1808C104.663 36.1871 104.376 36.1907 104.097 36.1907L103.082 36.1925L7.90523 36.1907Z"
            fill="black" />
        <path
            d="M23.1836 18.7786C23.1936 18.0066 23.4011 17.2496 23.7868 16.5781C24.1724 15.9066 24.7237 15.3424 25.3892 14.938C24.9664 14.3412 24.4086 13.8501 23.7602 13.5036C23.1117 13.1572 22.3905 12.9649 21.6537 12.9421C20.082 12.7791 18.5583 13.8716 17.7574 13.8716C16.941 13.8716 15.7079 12.9583 14.38 12.9853C13.5211 13.0127 12.684 13.2596 11.9504 13.7018C11.2167 14.144 10.6114 14.7665 10.1936 15.5086C8.38342 18.6059 9.73362 23.1579 11.4676 25.6615C12.3351 26.8874 13.349 28.2568 14.6757 28.2083C15.9739 28.1551 16.4588 27.3901 18.0258 27.3901C19.5784 27.3901 20.0333 28.2083 21.3868 28.1774C22.7799 28.155 23.6576 26.946 24.4947 25.7084C25.118 24.8349 25.5976 23.8695 25.9159 22.8479C25.1065 22.5096 24.4159 21.9433 23.93 21.2197C23.4441 20.4961 23.1845 19.6471 23.1836 18.7786V18.7786Z"
            fill="white" />
        <path
            d="M20.627 11.2952C21.3866 10.3941 21.7608 9.23582 21.6701 8.06641C20.5097 8.18686 19.4378 8.73498 18.668 9.60154C18.2916 10.0249 18.0033 10.5174 17.8197 11.0509C17.636 11.5844 17.5605 12.1485 17.5975 12.7108C18.178 12.7167 18.7522 12.5924 19.2769 12.3472C19.8017 12.102 20.2633 11.7423 20.627 11.2952Z"
            fill="white" />
        <path
            d="M39.5938 25.1042H35.1635L34.0996 28.2089H32.2231L36.4194 16.7222H38.369L42.5652 28.2089H40.6568L39.5938 25.1042ZM35.6224 23.6715H39.1341L37.4029 18.6328H37.3545L35.6224 23.6715Z"
            fill="white" />
        <path
            d="M51.6276 24.022C51.6276 26.6244 50.2182 28.2965 48.0913 28.2965C47.5525 28.3243 47.0167 28.2017 46.5452 27.9425C46.0736 27.6834 45.6855 27.2983 45.4251 26.8313H45.3849V30.9793H43.6455V19.8342H45.3292V21.2271H45.3611C45.6335 20.7623 46.0282 20.3792 46.5033 20.1185C46.9784 19.8578 47.5162 19.7292 48.0593 19.7465C50.21 19.7465 51.6276 21.4267 51.6276 24.022ZM49.8398 24.022C49.8398 22.3264 48.9532 21.2117 47.6005 21.2117C46.2715 21.2117 45.3776 22.3499 45.3776 24.022C45.3776 25.7094 46.2715 26.8394 47.6005 26.8394C48.9532 26.8394 49.8398 25.7329 49.8398 24.022Z"
            fill="white" />
        <path
            d="M60.9543 24.022C60.9543 26.6244 59.5449 28.2965 57.418 28.2965C56.8792 28.3243 56.3434 28.2017 55.8718 27.9425C55.4003 27.6834 55.0121 27.2983 54.7518 26.8313H54.7115V30.9793H52.9722V19.8342H54.6558V21.2271H54.6878C54.9601 20.7623 55.3548 20.3792 55.8299 20.1185C56.3051 19.8578 56.8428 19.7292 57.386 19.7465C59.5367 19.7465 60.9543 21.4267 60.9543 24.022ZM59.1665 24.022C59.1665 22.3264 58.2799 21.2117 56.9271 21.2117C55.5982 21.2117 54.7043 22.3499 54.7043 24.022C54.7043 25.7094 55.5982 26.8394 56.9271 26.8394C58.2799 26.8394 59.1665 25.7328 59.1665 24.022H59.1665Z"
            fill="white" />
        <path
            d="M67.1184 25.0082C67.2473 26.1473 68.367 26.8952 69.897 26.8952C71.3631 26.8952 72.4179 26.1473 72.4179 25.1202C72.4179 24.2286 71.7817 23.6948 70.2754 23.3289L68.7691 22.9703C66.6349 22.4608 65.6441 21.4744 65.6441 19.8737C65.6441 17.8918 67.3917 16.5305 69.8733 16.5305C72.3292 16.5305 74.0128 17.8918 74.0695 19.8737H72.3137C72.2086 18.7274 71.2498 18.0355 69.8486 18.0355C68.4474 18.0355 67.4886 18.7355 67.4886 19.7545C67.4886 20.5666 68.101 21.0444 69.599 21.4102L70.8796 21.721C73.2642 22.2783 74.255 23.225 74.255 24.9052C74.255 27.0542 72.523 28.4001 69.7681 28.4001C67.1906 28.4001 65.4503 27.0858 65.3379 25.0081L67.1184 25.0082Z"
            fill="white" />
        <path
            d="M78.009 17.8522V19.8341H79.6204V21.1954H78.009V25.8122C78.009 26.5295 78.3316 26.8637 79.04 26.8637C79.2313 26.8604 79.4223 26.8471 79.6122 26.8239V28.1771C79.2937 28.2359 78.97 28.2625 78.6461 28.2566C76.9305 28.2566 76.2614 27.6197 76.2614 25.9956V21.1954H75.0293V19.8341H76.2614V17.8522H78.009Z"
            fill="white" />
        <path
            d="M80.5537 24.0218C80.5537 21.3869 82.124 19.7311 84.5726 19.7311C87.0295 19.7311 88.5925 21.3868 88.5925 24.0218C88.5925 26.6641 87.0377 28.3126 84.5726 28.3126C82.1084 28.3126 80.5537 26.6641 80.5537 24.0218ZM86.8202 24.0218C86.8202 22.2143 85.9821 21.1475 84.5726 21.1475C83.1632 21.1475 82.326 22.2224 82.326 24.0218C82.326 25.8366 83.1632 26.8953 84.5726 26.8953C85.9821 26.8953 86.8202 25.8366 86.8202 24.0218H86.8202Z"
            fill="white" />
        <path
            d="M90.0264 19.8341H91.6853V21.2595H91.7256C91.8378 20.8143 92.1017 20.4209 92.4729 20.1453C92.8441 19.8698 93.2999 19.7289 93.7638 19.7465C93.9643 19.7458 94.1641 19.7673 94.3597 19.8106V21.4185C94.1067 21.3421 93.8427 21.307 93.5782 21.3146C93.3255 21.3045 93.0736 21.3485 92.8398 21.4437C92.6059 21.5389 92.3957 21.6829 92.2235 21.866C92.0513 22.049 91.9213 22.2667 91.8422 22.5041C91.7632 22.7416 91.7371 22.9931 91.7657 23.2414V28.2088H90.0264L90.0264 19.8341Z"
            fill="white" />
        <path
            d="M102.379 25.749C102.145 27.2693 100.647 28.3126 98.7305 28.3126C96.2654 28.3126 94.7354 26.6803 94.7354 24.0616C94.7354 21.4347 96.2736 19.7311 98.6574 19.7311C101.002 19.7311 102.476 21.3227 102.476 23.862V24.4509H96.4912V24.5548C96.4636 24.863 96.5026 25.1735 96.6057 25.4657C96.7088 25.7578 96.8737 26.0249 97.0893 26.2493C97.3049 26.4737 97.5663 26.6501 97.8562 26.7669C98.1461 26.8838 98.4579 26.9383 98.7707 26.9269C99.1818 26.965 99.5943 26.8709 99.9469 26.6587C100.299 26.4464 100.573 26.1274 100.728 25.749L102.379 25.749ZM96.4994 23.2495H100.736C100.751 22.9724 100.709 22.6951 100.611 22.4349C100.513 22.1748 100.362 21.9375 100.167 21.7379C99.9714 21.5384 99.7366 21.3808 99.4769 21.2751C99.2172 21.1695 98.9382 21.118 98.6574 21.124C98.3742 21.1223 98.0934 21.1761 97.8313 21.2822C97.5692 21.3884 97.3309 21.5448 97.1303 21.7424C96.9297 21.94 96.7706 22.1749 96.6623 22.4336C96.554 22.6923 96.4987 22.9696 96.4994 23.2495V23.2495Z"
            fill="white" />
        <path
            d="M35.4044 8.07658C35.7691 8.05071 36.135 8.10516 36.4758 8.23598C36.8166 8.36681 37.1238 8.57075 37.3752 8.83311C37.6265 9.09546 37.8159 9.40968 37.9295 9.75311C38.0431 10.0965 38.0782 10.4606 38.0322 10.8191C38.0322 12.5823 37.068 13.5959 35.4044 13.5959H33.3872V8.07658H35.4044ZM34.2546 12.8154H35.3075C35.5681 12.8307 35.8289 12.7885 36.0709 12.6918C36.3129 12.595 36.53 12.4461 36.7064 12.256C36.8828 12.0658 37.0141 11.8392 37.0907 11.5926C37.1673 11.3459 37.1873 11.0855 37.1493 10.8303C37.1846 10.5761 37.1625 10.3173 37.0847 10.0725C37.007 9.82766 36.8753 9.60288 36.6993 9.41425C36.5233 9.22561 36.3072 9.07779 36.0666 8.98137C35.826 8.88495 35.5668 8.84233 35.3075 8.85654H34.2546V12.8154Z"
            fill="white" />
        <path
            d="M39.0118 11.5114C38.9853 11.2376 39.017 10.9615 39.1049 10.7006C39.1927 10.4396 39.3347 10.1998 39.5219 9.99627C39.709 9.79278 39.9371 9.6302 40.1915 9.51894C40.446 9.40769 40.7211 9.35022 40.9994 9.35022C41.2776 9.35022 41.5528 9.40769 41.8072 9.51894C42.0616 9.6302 42.2897 9.79278 42.4769 9.99627C42.664 10.1998 42.8061 10.4396 42.8939 10.7006C42.9817 10.9615 43.0134 11.2376 42.9869 11.5114C43.0139 11.7854 42.9826 12.0619 42.895 12.3233C42.8074 12.5846 42.6654 12.8249 42.4783 13.0288C42.2911 13.2327 42.0628 13.3956 41.8081 13.5071C41.5534 13.6186 41.2779 13.6762 40.9994 13.6762C40.7208 13.6762 40.4453 13.6186 40.1906 13.5071C39.9359 13.3956 39.7077 13.2327 39.5205 13.0288C39.3333 12.8249 39.1913 12.5846 39.1037 12.3233C39.0162 12.0619 38.9848 11.7854 39.0118 11.5114V11.5114ZM42.1314 11.5114C42.1314 10.6085 41.721 10.0805 41.0007 10.0805C40.2778 10.0805 39.871 10.6085 39.871 11.5114C39.871 12.4215 40.2778 12.9454 41.0007 12.9454C41.721 12.9454 42.1314 12.4179 42.1314 11.5114H42.1314Z"
            fill="white" />
        <path
            d="M48.2708 13.5958H47.408L46.5369 10.5281H46.4711L45.6037 13.5958H44.7491L43.5874 9.4306H44.431L45.186 12.6089H45.2482L46.1147 9.4306H46.9126L47.7791 12.6089H47.8449L48.5962 9.4306H49.428L48.2708 13.5958Z"
            fill="white" />
        <path
            d="M50.4053 9.43069H51.206V10.0924H51.2681C51.3735 9.85472 51.5514 9.6555 51.7768 9.52248C52.0023 9.38946 52.2641 9.32927 52.5258 9.35029C52.7309 9.33505 52.9368 9.36561 53.1283 9.4397C53.3198 9.51379 53.4919 9.62951 53.632 9.77829C53.7721 9.92707 53.8766 10.1051 53.9376 10.2992C53.9986 10.4933 54.0147 10.6984 53.9846 10.8995V13.5959H53.1528V11.1059C53.1528 10.4365 52.8585 10.1037 52.2434 10.1037C52.1041 10.0973 51.9651 10.1207 51.8359 10.1723C51.7067 10.224 51.5903 10.3026 51.4947 10.4029C51.3992 10.5031 51.3266 10.6226 51.2822 10.7532C51.2377 10.8837 51.2223 11.0222 51.237 11.1592V13.5959H50.4053L50.4053 9.43069Z"
            fill="white" />
        <path d="M55.3101 7.80469H56.1418V13.5959H55.3101V7.80469Z" fill="white" />
        <path
            d="M57.2975 11.5114C57.271 11.2377 57.3027 10.9615 57.3905 10.7006C57.4784 10.4397 57.6205 10.1998 57.8076 9.99628C57.9948 9.79279 58.2229 9.6302 58.4773 9.51895C58.7318 9.40769 59.007 9.35022 59.2852 9.35022C59.5635 9.35022 59.8387 9.40769 60.0931 9.51895C60.3476 9.6302 60.5757 9.79279 60.7628 9.99628C60.95 10.1998 61.0921 10.4397 61.1799 10.7006C61.2678 10.9615 61.2995 11.2377 61.273 11.5114C61.3 11.7855 61.2686 12.062 61.181 12.3234C61.0934 12.5847 60.9514 12.825 60.7642 13.0289C60.577 13.2328 60.3487 13.3957 60.094 13.5072C59.8393 13.6187 59.5638 13.6763 59.2852 13.6763C59.0067 13.6763 58.7312 13.6187 58.4765 13.5072C58.2218 13.3957 57.9935 13.2328 57.8063 13.0289C57.6191 12.825 57.4771 12.5847 57.3895 12.3234C57.3018 12.062 57.2705 11.7855 57.2975 11.5114V11.5114ZM60.417 11.5114C60.417 10.6086 60.0066 10.0806 59.2864 10.0806C58.5634 10.0806 58.1567 10.6086 58.1567 11.5115C58.1567 12.4216 58.5634 12.9455 59.2864 12.9455C60.0066 12.9455 60.417 12.4179 60.417 11.5114H60.417Z"
            fill="white" />
        <path
            d="M62.1489 12.4179C62.1489 11.6681 62.7138 11.2359 63.7165 11.1745L64.8581 11.1094V10.7499C64.8581 10.31 64.5638 10.0616 63.9952 10.0616C63.5309 10.0616 63.2092 10.2301 63.1169 10.5245H62.3116C62.3966 9.8091 63.0776 9.35022 64.0336 9.35022C65.0902 9.35022 65.6862 9.87007 65.6862 10.7499V13.5958H64.8855V13.0105H64.8197C64.6861 13.2204 64.4985 13.3916 64.2761 13.5065C64.0537 13.6214 63.8045 13.6759 63.5538 13.6644C63.3768 13.6826 63.198 13.664 63.0288 13.6097C62.8597 13.5554 62.7039 13.4667 62.5715 13.3492C62.4391 13.2318 62.3332 13.0882 62.2604 12.9278C62.1876 12.7674 62.1496 12.5937 62.1489 12.4179V12.4179ZM64.8581 12.062V11.7138L63.8289 11.7788C63.2485 11.8172 62.9852 12.0123 62.9852 12.3795C62.9852 12.7544 63.3143 12.9725 63.7668 12.9725C63.8993 12.9858 64.0333 12.9726 64.1605 12.9336C64.2878 12.8947 64.4059 12.8308 64.5077 12.7459C64.6096 12.6609 64.693 12.5566 64.7532 12.4391C64.8134 12.3216 64.8491 12.1934 64.8581 12.062V12.062Z"
            fill="white" />
        <path
            d="M66.7793 11.5115C66.7793 10.1953 67.4639 9.36157 68.5287 9.36157C68.7921 9.34958 69.0535 9.41193 69.2824 9.54133C69.5113 9.67073 69.6981 9.86184 69.8212 10.0923H69.8833V7.80469H70.7151V13.5959H69.918V12.9378H69.8522C69.7197 13.1667 69.5263 13.3555 69.293 13.4836C69.0597 13.6117 68.7954 13.6742 68.5287 13.6645C67.4566 13.6646 66.7793 12.8308 66.7793 11.5115ZM67.6385 11.5115C67.6385 12.3949 68.0599 12.9265 68.7646 12.9265C69.4656 12.9265 69.8989 12.3873 69.8989 11.5151C69.8989 10.647 69.4611 10.1 68.7646 10.1C68.0644 10.1 67.6385 10.6353 67.6385 11.5115H67.6385Z"
            fill="white" />
        <path
            d="M74.1564 11.5114C74.1299 11.2376 74.1616 10.9615 74.2494 10.7006C74.3372 10.4396 74.4793 10.1998 74.6664 9.99627C74.8535 9.79278 75.0816 9.6302 75.3361 9.51894C75.5905 9.40769 75.8657 9.35022 76.1439 9.35022C76.4221 9.35022 76.6973 9.40769 76.9517 9.51894C77.2062 9.6302 77.4343 9.79278 77.6214 9.99627C77.8085 10.1998 77.9506 10.4396 78.0384 10.7006C78.1262 10.9615 78.1579 11.2376 78.1314 11.5114C78.1584 11.7854 78.1271 12.0619 78.0395 12.3233C77.9519 12.5846 77.81 12.8249 77.6228 13.0288C77.4356 13.2327 77.2073 13.3956 76.9526 13.5071C76.6979 13.6186 76.4225 13.6762 76.1439 13.6762C75.8653 13.6762 75.5899 13.6186 75.3352 13.5071C75.0805 13.3956 74.8522 13.2327 74.665 13.0288C74.4778 12.8249 74.3359 12.5846 74.2483 12.3233C74.1607 12.0619 74.1294 11.7854 74.1564 11.5114V11.5114ZM77.2759 11.5114C77.2759 10.6085 76.8655 10.0805 76.1453 10.0805C75.4223 10.0805 75.0156 10.6085 75.0156 11.5114C75.0156 12.4215 75.4223 12.9454 76.1453 12.9454C76.8655 12.9454 77.2759 12.4179 77.2759 11.5114Z"
            fill="white" />
        <path
            d="M79.2476 9.43069H80.0482V10.0924H80.1104C80.2158 9.85472 80.3937 9.6555 80.6191 9.52248C80.8446 9.38946 81.1064 9.32927 81.3681 9.35029C81.5731 9.33505 81.7791 9.36561 81.9705 9.4397C82.162 9.51379 82.3342 9.62951 82.4743 9.77829C82.6144 9.92707 82.7188 10.1051 82.7799 10.2992C82.8409 10.4933 82.8569 10.6984 82.8268 10.8995V13.5959H81.9951V11.1059C81.9951 10.4365 81.7008 10.1037 81.0857 10.1037C80.9464 10.0973 80.8074 10.1207 80.6782 10.1723C80.549 10.224 80.4326 10.3026 80.337 10.4029C80.2414 10.5031 80.1689 10.6226 80.1244 10.7532C80.08 10.8837 80.0646 11.0222 80.0793 11.1592V13.5959H79.2476V9.43069Z"
            fill="white" />
        <path
            d="M87.5266 8.3938V9.44978H88.4397V10.1422H87.5266V12.284C87.5266 12.7203 87.7085 12.9113 88.1226 12.9113C88.2286 12.911 88.3345 12.9046 88.4397 12.8923V13.577C88.2904 13.6035 88.139 13.6175 87.9873 13.619C87.0623 13.619 86.694 13.2975 86.694 12.4944V10.1421H86.0249V9.44974H86.694V8.3938H87.5266Z"
            fill="white" />
        <path
            d="M89.5762 7.80469H90.4006V10.1H90.4664C90.577 9.86016 90.7597 9.65981 90.9897 9.52629C91.2196 9.39277 91.4856 9.33257 91.7515 9.35389C91.9555 9.34292 92.1594 9.37658 92.3487 9.45246C92.5381 9.52835 92.7081 9.6446 92.8467 9.79291C92.9854 9.94123 93.0892 10.1179 93.1508 10.3105C93.2123 10.503 93.2301 10.7066 93.2029 10.9067V13.5959H92.3704V11.1095C92.3704 10.4442 92.0568 10.1072 91.4691 10.1072C91.3262 10.0957 91.1824 10.1151 91.0478 10.1642C90.9132 10.2132 90.7912 10.2908 90.6901 10.3914C90.589 10.4919 90.5114 10.6131 90.4627 10.7465C90.4139 10.8798 90.3953 11.022 90.408 11.1632V13.5959H89.5762L89.5762 7.80469Z"
            fill="white" />
        <path
            d="M98.0528 12.4713C97.9398 12.8519 97.6949 13.1812 97.3611 13.4015C97.0272 13.6218 96.6256 13.7191 96.2266 13.6763C95.9489 13.6835 95.673 13.631 95.4179 13.5223C95.1629 13.4135 94.9348 13.2513 94.7496 13.0467C94.5643 12.8422 94.4264 12.6002 94.3452 12.3377C94.2641 12.0752 94.2417 11.7983 94.2797 11.5264C94.2427 11.2536 94.2655 10.9762 94.3464 10.7129C94.4274 10.4495 94.5646 10.2065 94.7489 10.0001C94.9331 9.79379 95.1601 9.62898 95.4144 9.51687C95.6687 9.40475 95.9444 9.34794 96.2229 9.35029C97.3956 9.35029 98.103 10.1421 98.103 11.45V11.7369H95.127V11.7829C95.114 11.9358 95.1334 12.0896 95.1841 12.2346C95.2347 12.3796 95.3155 12.5126 95.4211 12.6249C95.5268 12.7373 95.6551 12.8265 95.7977 12.887C95.9404 12.9475 96.0942 12.9779 96.2494 12.9762C96.4484 12.9998 96.6499 12.9644 96.8285 12.8745C97.007 12.7846 97.1545 12.6442 97.2521 12.4712L98.0528 12.4713ZM95.127 11.1289H97.2557C97.2662 10.9891 97.247 10.8487 97.1993 10.7167C97.1516 10.5847 97.0765 10.464 96.9788 10.3624C96.8811 10.2608 96.7629 10.1805 96.632 10.1267C96.501 10.0728 96.3601 10.0467 96.2183 10.0499C96.0744 10.0481 95.9317 10.0748 95.7984 10.1284C95.6652 10.182 95.5441 10.2614 95.4424 10.362C95.3407 10.4626 95.2604 10.5822 95.2062 10.7139C95.1521 10.8457 95.1251 10.9868 95.127 11.1289H95.127Z"
            fill="white" />
    </g>
    <defs>
        <clipPath id="clip0_2924_858">
            <rect width="112" height="37" fill="white" />
        </clipPath>
    </defs>
</svg>