<svg width="565" height="377" viewBox="0 0 565 377" fill="none" xmlns="http://www.w3.org/2000/svg">
<g opacity="0.5">
<path d="M227.642 283.579C223.303 268.575 210.888 257.039 194.872 256.647C185.561 256.42 176.529 260.417 168.596 264.978C157.891 271.131 145.273 278.558 132.459 276.695C124.255 275.497 114.537 270.89 112.608 261.367C110.574 251.293 118.703 244.379 127.396 240.33C134.847 236.854 145.295 228.552 148.648 220.605C161.921 189.081 124.805 153.1 135.276 117.172C146.237 79.5696 197.004 73.2134 222.52 98.7438C224.968 101.194 227.25 103.803 229.337 106.57C234.543 113.492 237.609 122.917 244.848 128.112C254.22 134.838 266.363 132.681 276.466 128.693C295.759 121.062 300.866 116.026 319.73 107.807C333.297 101.896 350.014 96.6251 365.254 101.873C376.177 105.635 388.245 112.406 394.355 122.201C405.715 140.417 400.615 160.044 418.575 185.951C426.711 197.691 439.645 200.979 449.951 209.461C476.664 231.448 467.737 277.804 438.598 293.66C414.672 306.682 385.217 303.711 359.272 300.371C357.283 300.115 355.295 299.843 353.313 299.549" stroke="#ADBBF9" stroke-miterlimit="10" stroke-linejoin="round" stroke-dasharray="3.5 3.5"/>
<path d="M417.053 112.7C419.298 110.137 421.294 107.287 422.951 104.135C424.609 100.991 425.844 97.7335 426.695 94.431L417.791 91.2717C418.507 88.1954 418.778 85.0738 418.65 81.9824L427.999 80.5272C427.539 73.5678 425.452 66.7969 421.912 60.7875L413.369 64.8591C411.734 62.2427 409.753 59.8148 407.425 57.6735L413 50.0355C410.438 47.7885 407.591 45.7904 404.442 44.1316C401.301 42.4728 398.046 41.2363 394.747 40.3843L391.59 49.2965C388.516 48.5802 385.398 48.3088 382.309 48.437L380.855 39.0798C373.902 39.5398 367.137 41.6284 361.133 45.1722L365.201 53.7225C362.587 55.3587 360.161 57.3417 358.022 59.6716L350.39 54.092C348.145 56.6556 346.149 59.5057 344.492 62.6574C342.834 65.8016 341.599 69.0589 340.748 72.3614L349.652 75.5207C348.936 78.597 348.665 81.7185 348.793 84.8099L339.444 86.2652C339.904 93.2246 341.991 99.9955 345.531 106.005L354.074 101.933C355.709 104.55 357.69 106.978 360.018 109.119L354.443 116.757C357.005 119.004 359.852 121.002 363.001 122.661C366.142 124.32 369.397 125.556 372.696 126.408L375.853 117.496C378.927 118.212 382.045 118.484 385.134 118.355L386.588 127.713C393.541 127.253 400.306 125.164 406.31 121.62L402.242 113.07C404.856 111.434 407.282 109.451 409.421 107.121L417.053 112.7ZM373.374 103.019C362.549 97.2962 358.413 83.875 364.124 73.0475C369.841 62.2126 383.251 58.0731 394.069 63.7884C404.894 69.5113 409.03 82.9325 403.319 93.7599C397.602 104.595 384.2 108.734 373.374 103.019ZM376.365 97.3414C368.674 93.2774 365.736 83.7393 369.796 76.0409C373.857 68.3426 383.386 65.402 391.078 69.466C398.769 73.5301 401.707 83.0682 397.647 90.7665C393.586 98.4573 384.057 101.405 376.365 97.3414Z" fill="#E4E9F9"/>
<path d="M214.7 134.159C215.928 132.44 216.975 130.563 217.804 128.519C218.633 126.476 219.19 124.395 219.514 122.306L213.834 120.911C214.082 118.974 214.06 117.028 213.789 115.136L219.461 113.666C218.753 109.405 217.043 105.364 214.497 101.88L209.487 104.919C208.319 103.404 206.948 102.039 205.381 100.863L208.35 95.8108C206.632 94.5818 204.756 93.5337 202.715 92.7043C200.673 91.8749 198.594 91.317 196.507 90.9927L195.113 96.6779C193.177 96.4291 191.234 96.4517 189.343 96.7231L187.874 91.0455C183.618 91.7543 179.58 93.4659 176.099 96.0144L179.135 101.028C177.621 102.197 176.258 103.569 175.082 105.138L170.035 102.167C168.807 103.886 167.76 105.764 166.931 107.807C166.103 109.85 165.545 111.931 165.221 114.02L170.901 115.415C170.653 117.353 170.675 119.298 170.947 121.19L165.274 122.661C165.982 126.921 167.692 130.962 170.238 134.446L175.248 131.407C176.416 132.923 177.787 134.287 179.354 135.464L176.386 140.515C178.103 141.744 179.979 142.793 182.021 143.622C184.062 144.451 186.141 145.009 188.228 145.334L189.622 139.648C191.558 139.897 193.501 139.875 195.392 139.603L196.861 145.281C201.118 144.572 205.155 142.86 208.636 140.312L205.6 135.298C207.114 134.129 208.478 132.757 209.653 131.188L214.7 134.159ZM187.196 130.887C180.175 128.029 176.8 120.014 179.655 112.987C182.51 105.96 190.518 102.582 197.539 105.439C204.56 108.297 207.935 116.312 205.08 123.339C202.225 130.367 194.217 133.745 187.196 130.887ZM188.695 127.207C183.708 125.179 181.305 119.486 183.331 114.487C185.358 109.496 191.045 107.091 196.04 109.119C201.027 111.147 203.43 116.84 201.404 121.839C199.37 126.83 193.682 129.236 188.695 127.207Z" fill="#E4E9F9"/>
<path d="M237.255 81.8618C238.227 80.7534 239.093 79.5169 239.809 78.1521C240.532 76.7874 241.059 75.3774 241.428 73.9448L237.571 72.5725C237.88 71.2379 238.001 69.8807 237.941 68.5462L241.993 67.9128C241.798 64.8968 240.886 61.9562 239.357 59.3549L235.658 61.1193C234.95 59.9807 234.091 58.9327 233.081 58.0052L235.5 54.6952C234.392 53.7225 233.157 52.8554 231.793 52.1391C230.43 51.4153 229.021 50.8875 227.59 50.518L226.219 54.3785C224.885 54.0694 223.529 53.9487 222.196 54.009L221.563 49.9525C218.55 50.1486 215.612 51.0609 213.013 52.5915L214.776 56.2937C213.638 57.0024 212.591 57.862 211.664 58.8723L208.357 56.452C207.385 57.5604 206.519 58.7969 205.803 60.1617C205.08 61.5264 204.553 62.9364 204.184 64.369L208.041 65.7413C207.732 67.0759 207.611 68.4331 207.672 69.7676L203.619 70.401C203.815 73.417 204.726 76.3576 206.255 78.9589L209.954 77.1945C210.662 78.3331 211.521 79.3811 212.531 80.3086L210.112 83.6186C211.22 84.5913 212.455 85.4584 213.819 86.1747C215.182 86.8985 216.591 87.4263 218.022 87.7958L219.393 83.9353C220.727 84.2444 222.083 84.3651 223.416 84.3048L224.049 88.3613C227.062 88.1652 230 87.2529 232.599 85.7223L230.837 82.0201C231.974 81.3114 233.021 80.4518 233.948 79.4415L237.255 81.8618ZM219.582 75.2869C216.207 73.4999 214.911 69.3152 216.697 65.9298C218.482 62.5519 222.663 61.255 226.045 63.042C229.42 64.8289 230.716 69.0136 228.931 72.3991C227.145 75.777 222.957 77.0664 219.582 75.2869Z" fill="#E4E9F9"/>
<path d="M146.23 142.001C146.207 141.496 146.162 140.96 146.102 140.395C145.582 135.712 142.38 136.142 140.384 136.285C138.387 136.429 135.909 136.504 134.96 134.325C134.545 133.375 134.561 132.237 134.289 131.211C133.687 128.942 131.668 127.577 129.739 127.577C127.811 127.569 125.988 128.678 124.413 130.05C123.592 130.759 122.665 131.596 121.694 131.324C121.068 131.151 120.579 130.555 120.187 129.922C117.904 126.212 117.919 120.813 115.418 117.322C112.661 113.469 107.501 113.394 104.013 116.191C100.525 118.989 98.5211 123.973 97.602 129.002C97.3082 130.638 97.0445 132.433 96.0426 133.541C94.6037 135.132 92.3965 134.604 90.4755 134.393C88.2456 134.144 85.8651 134.506 84.0571 136.142C82.5805 137.477 81.6238 139.814 81.8046 142.008H146.23V142.001Z" fill="white" stroke="#ADBBF9" stroke-miterlimit="10" stroke-linejoin="round"/>
<path d="M275.268 60.9006H338.684C338.684 60.9006 336.145 57.9449 333.267 56.9346C329.644 55.6678 328.145 59.2343 325.855 54.6198C324.574 52.0336 323.677 48.6255 320.302 47.7433C315.029 46.3635 313.688 50.7216 311.172 49.5454C308.965 48.5124 309.033 44.3654 306.81 40.9045C304.633 37.5191 299.33 35.438 295.706 37.2024C289.092 40.4295 289.951 45.5567 287.789 47.2457C285.649 48.912 280.752 43.0383 275.268 49.3946C271.486 53.7753 275.268 60.9006 275.268 60.9006Z" fill="white" stroke="#ADBBF9" stroke-miterlimit="10" stroke-linejoin="round"/>
<path d="M341.463 39.0949C341.463 40.6331 340.22 41.8772 338.684 41.8772C337.147 41.8772 335.904 40.6331 335.904 39.0949C335.904 37.5568 337.147 36.3127 338.684 36.3127C340.213 36.3051 341.463 37.5568 341.463 39.0949Z" stroke="#ADBBF9" stroke-miterlimit="10" stroke-linejoin="round"/>
<path d="M524.847 263.553C524.847 265.091 523.604 266.335 522.067 266.335C520.531 266.335 519.288 265.091 519.288 263.553C519.288 262.015 520.531 260.771 522.067 260.771C523.597 260.771 524.847 262.015 524.847 263.553Z" stroke="#ADBBF9" stroke-miterlimit="10" stroke-linejoin="round"/>
<path d="M391.944 148.154C391.944 149.692 390.701 150.936 389.165 150.936C387.628 150.936 386.385 149.692 386.385 148.154C386.385 146.615 387.628 145.371 389.165 145.371C390.694 145.364 391.944 146.608 391.944 148.154Z" stroke="#ADBBF9" stroke-miterlimit="10" stroke-linejoin="round"/>
<path d="M47.7764 181.179C47.7764 182.717 46.5334 183.961 44.9966 183.961C43.4598 183.961 42.2168 182.717 42.2168 181.179C42.2168 179.641 43.4598 178.396 44.9966 178.396C46.5334 178.389 47.7764 179.641 47.7764 181.179Z" stroke="#ADBBF9" stroke-miterlimit="10" stroke-linejoin="round"/>
<path d="M161.296 76.7647C161.296 78.3029 160.053 79.547 158.517 79.547C156.98 79.547 155.737 78.3029 155.737 76.7647C155.737 75.2266 156.98 73.9825 158.517 73.9825C160.053 73.9825 161.296 75.2266 161.296 76.7647Z" stroke="#ADBBF9" stroke-miterlimit="10" stroke-linejoin="round"/>
<path d="M194.254 64.0976C194.254 65.1456 193.411 65.9901 192.364 65.9901C191.316 65.9901 190.473 65.1456 190.473 64.0976C190.473 63.0495 191.316 62.205 192.364 62.205C193.411 62.205 194.254 63.057 194.254 64.0976Z" stroke="#ADBBF9" stroke-miterlimit="10" stroke-linejoin="round"/>
<path d="M502.33 198.121C502.33 199.169 501.486 200.014 500.439 200.014C499.392 200.014 498.548 199.169 498.548 198.121C498.548 197.073 499.392 196.229 500.439 196.229C501.479 196.229 502.33 197.081 502.33 198.121Z" stroke="#ADBBF9" stroke-miterlimit="10" stroke-linejoin="round"/>
<path d="M364.9 137.349C365.944 137.349 366.791 136.501 366.791 135.456C366.791 134.411 365.944 133.564 364.9 133.564C363.855 133.564 363.009 134.411 363.009 135.456C363.009 136.501 363.855 137.349 364.9 137.349Z" stroke="#ADBBF9" stroke-miterlimit="10" stroke-linejoin="round"/>
<path d="M441.197 87.8184C441.197 88.8664 440.354 89.7109 439.306 89.7109C438.259 89.7109 437.416 88.8664 437.416 87.8184C437.416 86.7703 438.259 85.9258 439.306 85.9258C440.346 85.9258 441.197 86.7779 441.197 87.8184Z" stroke="#ADBBF9" stroke-miterlimit="10" stroke-linejoin="round"/>
<path d="M437.167 226.517C437.167 227.565 436.323 228.409 435.276 228.409C434.229 228.409 433.385 227.565 433.385 226.517C433.385 225.469 434.229 224.624 435.276 224.624C436.323 224.624 437.167 225.469 437.167 226.517Z" stroke="#ADBBF9" stroke-miterlimit="10" stroke-linejoin="round"/>
<path d="M143.585 244.643C143.585 245.691 142.742 246.535 141.695 246.535C140.647 246.535 139.804 245.691 139.804 244.643C139.804 243.595 140.647 242.75 141.695 242.75C142.742 242.75 143.585 243.595 143.585 244.643Z" stroke="#ADBBF9" stroke-miterlimit="10" stroke-linejoin="round"/>
<path d="M149.258 158.152C149.258 159.2 148.414 160.044 147.367 160.044C146.32 160.044 145.476 159.2 145.476 158.152C145.476 157.103 146.32 156.259 147.367 156.259C148.414 156.259 149.258 157.103 149.258 158.152Z" stroke="#ADBBF9" stroke-miterlimit="10" stroke-linejoin="round"/>
<path d="M513.962 171.037H511.431C510.979 171.037 510.609 170.668 510.609 170.216V167.682C510.609 167.23 510.979 166.86 511.431 166.86H513.962C514.414 166.86 514.783 167.23 514.783 167.682V170.216C514.79 170.668 514.421 171.037 513.962 171.037Z" fill="#E4E9F9"/>
<path d="M124.398 258.192H121.867C121.415 258.192 121.045 257.823 121.045 257.37V254.837C121.045 254.385 121.415 254.015 121.867 254.015H124.398C124.85 254.015 125.219 254.385 125.219 254.837V257.37C125.219 257.823 124.85 258.192 124.398 258.192Z" fill="#E4E9F9"/>
<path d="M119.991 103.962H117.46C117.008 103.962 116.639 103.592 116.639 103.14V100.606C116.639 100.154 117.008 99.7844 117.46 99.7844H119.991C120.443 99.7844 120.812 100.154 120.812 100.606V103.14C120.82 103.592 120.451 103.962 119.991 103.962Z" fill="#E4E9F9"/>
<path d="M445.182 74.0278H440.316C439.442 74.0278 438.734 73.319 438.734 72.4444V67.5735C438.734 66.6989 439.442 65.9901 440.316 65.9901H445.182C446.056 65.9901 446.764 66.6989 446.764 67.5735V72.4444C446.764 73.319 446.056 74.0278 445.182 74.0278Z" fill="#E4E9F9"/>
<path d="M399.794 195.399H397.263C396.811 195.399 396.441 195.03 396.441 194.577V192.044C396.441 191.591 396.811 191.222 397.263 191.222H399.794C400.246 191.222 400.615 191.591 400.615 192.044V194.577C400.615 195.03 400.246 195.399 399.794 195.399Z" fill="#E4E9F9"/>
<path d="M342.142 165.36C342.164 164.998 342.194 164.613 342.247 164.206C342.669 160.843 345.298 161.152 346.94 161.258C348.575 161.364 350.609 161.416 351.393 159.848C351.732 159.169 351.716 158.348 351.942 157.616C352.44 155.988 354.097 155.007 355.679 155.007C357.261 155.007 358.753 155.799 360.048 156.779C364.252 159.969 365.457 151.577 367.454 149.141C369.721 146.374 373.94 144.828 376.802 146.834C379.665 148.84 381.315 152.414 382.061 156.025C382.302 157.201 382.392 158.634 383.341 159.283C386.121 161.183 389.7 157.496 393.059 160.361C394.235 161.364 394.461 163.784 394.31 165.36H342.142Z" fill="white" stroke="#ADBBF9" stroke-miterlimit="10" stroke-linejoin="round"/>
<path d="M134.628 337.724C125.181 323.466 105.406 287.432 122.545 275.037C131.954 268.228 144.429 274.426 150.463 289.438C156.189 303.696 158.381 320.541 160.769 337.521" fill="white"/>
<path d="M134.824 337.604C130.304 330.674 126.236 323.406 122.861 315.851C119.208 307.662 115.848 298.546 116.089 289.438C116.307 281.287 121.257 272.94 130.221 272.586C141.544 272.141 148.279 283.964 151.511 293.133C156.543 307.428 158.358 322.667 160.46 337.604C160.52 338.011 161.131 337.837 161.07 337.438C159.029 322.916 157.243 308.152 152.55 294.196C149.431 284.929 143.698 273.755 132.896 272.141C124.895 270.942 117.927 276.831 116.126 284.394C114.055 293.095 116.963 302.641 120.097 310.723C123.788 320.246 128.737 329.362 134.41 337.845C134.591 338.086 134.99 337.86 134.824 337.604Z" fill="#ADBBF9"/>
<path d="M127.404 272.895L149.672 337.769" stroke="#ADBBF9" stroke-miterlimit="10" stroke-linejoin="round"/>
<path d="M96.7583 337.732C88.6072 327.183 70.7984 300.529 85.5864 291.361C93.7073 286.324 103.712 290.908 108.917 302.015C113.859 312.563 115.75 325.027 117.806 337.581" fill="white"/>
<path d="M96.9617 337.619C93.1875 332.642 89.6619 327.447 86.6637 321.958C83.4695 316.115 80.3432 309.487 80.2001 302.701C80.0569 295.96 84.5317 290.252 91.4925 289.679C100.224 288.955 106.356 296.767 109.437 303.96C114.01 314.622 115.637 326.309 117.505 337.679C117.573 338.079 118.183 337.913 118.115 337.513C116.285 326.324 114.658 314.855 110.273 304.314C107.328 297.234 101.964 289.777 93.6546 289.076C87.4547 288.556 81.3376 292.605 79.9741 298.765C78.5352 305.257 81.2623 312.269 84.0119 318.037C87.3793 325.117 91.7788 331.745 96.6001 337.913C96.7583 338.109 97.1199 337.83 96.9617 337.619Z" fill="#ADBBF9"/>
<path d="M89.7749 289.777L108.985 337.769" stroke="#ADBBF9" stroke-miterlimit="10" stroke-linejoin="round"/>
<path d="M192.04 337.588C169.719 297.053 155.292 256.873 173.312 237.781C191.158 218.864 209.834 241.28 214.376 261.14C219.943 285.464 220.749 311.802 220.636 337.588" fill="white"/>
<path d="M192.04 337.588C169.719 297.053 155.292 256.873 173.312 237.781C191.158 218.864 209.834 241.28 214.376 261.14C219.943 285.464 220.749 311.802 220.636 337.588" stroke="#ADBBF9" stroke-miterlimit="10" stroke-linejoin="round"/>
<path d="M179.919 232.85L206.738 337.528" stroke="#ADBBF9" stroke-miterlimit="10" stroke-linejoin="round"/>
<path d="M158.539 337.709C149.672 316.265 129.724 272.895 143.789 259.482C152.784 250.909 169.033 261.419 177.387 280.156C185.328 297.951 187.708 316.265 192.469 337.453" fill="white"/>
<path d="M158.765 337.649C154.554 327.342 150.117 317.14 146.418 306.637C142.704 296.096 138.99 284.68 139.216 273.37C139.299 269.216 140.03 264.79 142.538 261.367C145.431 257.431 150.087 256.021 154.75 257.212C160.227 258.614 164.875 262.543 168.528 266.705C173.508 272.375 176.845 279.123 179.512 286.135C185.795 302.678 188.318 320.352 192.168 337.543C192.258 337.943 192.868 337.777 192.778 337.377C189.117 320.993 186.653 304.201 180.996 288.337C176.762 276.454 169.997 262.867 157.703 257.597C153.748 255.9 149.115 255.47 145.356 257.883C141.973 260.055 140.075 263.787 139.246 267.632C138.222 272.413 138.568 277.419 139.276 282.215C140.165 288.262 141.762 294.188 143.593 300.009C147.661 312.918 153.085 325.321 158.313 337.777C158.426 338.048 158.878 337.928 158.765 337.649Z" fill="#ADBBF9"/>
<path d="M331.565 337.588C324.039 251.293 342.352 219.768 362.391 218.358C371.883 217.687 399.681 223.161 366.12 337.536" fill="white"/>
<path d="M331.715 337.588C329.862 309.178 327.964 279.651 335.286 251.783C338.458 239.704 344.409 224.119 357.412 219.663C362.542 217.906 368.373 218.23 372.719 221.699C380.403 227.836 381.594 239.78 381.887 248.835C382.211 258.991 381.111 269.186 379.545 279.206C377.194 294.294 373.653 309.185 369.653 323.918C368.425 328.442 367.145 332.959 365.902 337.483C365.826 337.762 366.256 337.882 366.339 337.604C371.431 321.234 375.605 304.458 378.716 287.598C380.765 276.507 382.347 265.25 382.513 253.955C382.611 247.086 382.234 240.028 380.32 233.393C379.19 229.487 377.458 225.597 374.595 222.641C370.911 218.833 365.766 217.461 360.613 218.283C348.033 220.281 340.921 233.137 337.064 244.04C333.44 254.279 331.685 265.137 330.668 275.919C329.177 291.708 329.365 307.64 330.299 323.451C330.578 328.171 330.909 332.891 331.414 337.596C331.437 337.777 331.723 337.784 331.715 337.588Z" fill="#ADBBF9"/>
<path d="M366.293 218.562L348.598 337.536" stroke="#ADBBF9" stroke-miterlimit="10" stroke-linejoin="round"/>
<path d="M390.792 337.596C396.932 286.309 417.603 256.745 436.278 264.767C451.556 271.327 443.676 299.881 419.871 337.558" fill="white"/>
<path d="M390.935 337.634C393.248 322.524 395.945 307.564 401.768 293.344C405.633 283.919 410.898 273.762 419.343 267.64C425.061 263.493 433.167 261.985 439.05 266.758C445.921 272.322 444.045 283.316 442.116 290.712C437.732 307.534 428.481 322.659 419.675 337.445C419.524 337.702 419.908 337.913 420.066 337.671C425.182 329.981 429.739 321.845 433.815 313.558C436.994 307.097 439.879 300.439 441.936 293.532C444.226 285.864 446.757 274.871 441.092 267.979C436.549 262.46 428.338 262.113 422.319 265.144C413.701 269.48 408.013 278.716 403.953 287.101C400.51 294.203 397.933 301.706 395.884 309.321C393.406 318.542 391.485 328.08 390.641 337.596C390.626 337.762 390.905 337.8 390.935 337.634Z" fill="#ADBBF9"/>
<path d="M436.278 264.775L405.715 337.566" stroke="#ADBBF9" stroke-miterlimit="10" stroke-linejoin="round"/>
<path d="M148.655 256.82L175.949 337.769" stroke="#ADBBF9" stroke-miterlimit="10" stroke-linejoin="round"/>
<path d="M393.067 337.694C405.135 312.081 429.483 253.6 411.147 232.865C401.082 221.48 382.656 235.459 372.885 260.567C363.604 284.409 356.658 308.959 350.903 337.355" fill="white"/>
<path d="M393.27 337.807C399.591 324.499 405.271 310.837 409.859 296.835C414.582 282.403 418.899 266.75 417.942 251.414C417.354 242.011 412.895 226.766 400.608 228.718C393.956 229.782 388.381 235.014 384.253 239.998C378.196 247.32 374.286 255.87 370.964 264.699C362.097 288.262 355.611 312.616 350.594 337.272C350.511 337.671 351.129 337.845 351.204 337.438C355.491 316.371 360.824 295.515 367.853 275.187C371.13 265.717 374.407 256.066 379.68 247.501C383.658 241.031 388.901 234.441 395.824 230.958C401.195 228.258 407.087 228.583 411.155 233.318C414.981 237.766 416.609 243.7 417.189 249.423C418.673 263.975 414.801 279.033 410.537 292.823C405.791 308.152 399.651 323.036 392.871 337.573C392.743 337.845 393.142 338.079 393.27 337.807Z" fill="#ADBBF9"/>
<path d="M405.715 229.291L373.435 337.769" stroke="#ADBBF9" stroke-miterlimit="10" stroke-linejoin="round"/>
<path d="M414.379 337.596C430.289 305.31 444.105 296.767 457.078 299.346C467.165 301.351 468.739 316.265 447.42 337.573" fill="white"/>
<path d="M414.507 337.671C419.434 328.887 423.886 319.96 430.44 312.216C434.485 307.436 439.329 302.889 445.273 300.62C449.416 299.044 454.871 298.403 459.052 300.265C463.707 302.339 464.483 307.647 463.564 312.164C461.522 322.177 453.914 330.169 447.269 337.423C447.073 337.641 447.375 337.943 447.593 337.747C454.366 331.466 461.116 323.142 463.707 314.094C464.973 309.675 465.146 304.058 461.214 300.899C457.786 298.154 452.302 298.237 448.234 299.142C442.32 300.461 437.258 304.239 433.092 308.499C429.732 311.93 426.824 315.798 424.18 319.794C420.473 325.389 416.948 331.353 414.273 337.528C414.183 337.694 414.409 337.845 414.507 337.671Z" fill="#ADBBF9"/>
<path d="M455.827 299.564L431.517 337.573" stroke="#ADBBF9" stroke-miterlimit="10" stroke-linejoin="round"/>
<path d="M216.395 337.43C212.523 337.43 209.366 334.271 209.366 330.395V81.2209C209.366 77.3378 212.523 74.1861 216.395 74.1861H348.605C352.484 74.1861 355.633 77.3454 355.633 81.2209V330.395C355.633 334.278 352.477 337.43 348.605 337.43H216.395Z" fill="#849CF4"/>
<path d="M348.605 74.5631C352.274 74.5631 355.257 77.5489 355.257 81.2209V330.395C355.257 334.067 352.274 337.053 348.605 337.053H216.395C212.726 337.053 209.743 334.067 209.743 330.395V81.2209C209.743 77.5489 212.726 74.5631 216.395 74.5631H348.605ZM348.605 73.8091H216.395C212.304 73.8091 208.99 77.1267 208.99 81.2209V330.395C208.99 334.49 212.304 337.807 216.395 337.807H348.605C352.696 337.807 356.01 334.49 356.01 330.395V81.2209C356.01 77.1267 352.696 73.8091 348.605 73.8091Z" fill="#849CF4"/>
<path d="M289.22 325.698C289.22 329.408 286.214 332.424 282.5 332.424C278.794 332.424 275.78 329.415 275.78 325.698C275.78 321.988 278.786 318.972 282.5 318.972C286.206 318.972 289.22 321.981 289.22 325.698Z" stroke="#4643BF" stroke-miterlimit="10"/>
<path d="M317.327 45.2023L207.302 344.465H239.281L349.306 45.2023H317.327Z" fill="url(#paint0_linear_2924_434)"/>
<path d="M359.197 45.2023L249.172 344.465H262.732L372.757 45.2023H359.197Z" fill="url(#paint1_linear_2924_434)"/>
<path d="M354.835 98.397H210.157V313.219H354.835V98.397Z" fill="white"/>
<path d="M274.229 84.7572H294.606C295.058 84.7572 295.42 85.1191 295.42 85.5715C295.42 86.0239 295.058 86.3858 294.606 86.3858H274.229C273.777 86.3858 273.415 86.0239 273.415 85.5715C273.415 85.1267 273.777 84.7572 274.229 84.7572Z" stroke="#4643BF" stroke-miterlimit="10"/>
<path d="M269.671 86.4235C270.137 86.4235 270.515 86.0454 270.515 85.579C270.515 85.1126 270.137 84.7346 269.671 84.7346C269.205 84.7346 268.827 85.1126 268.827 85.579C268.827 86.0454 269.205 86.4235 269.671 86.4235Z" stroke="#4643BF" stroke-miterlimit="10"/>
<path d="M282.5 181.586H220.049V244.756H282.5V181.586Z" fill="#D3DBF4"/>
<path d="M264.023 206.152C265.16 199.098 260.368 192.456 253.32 191.318C246.272 190.179 239.637 194.975 238.499 202.03C237.362 209.084 242.154 215.726 249.202 216.864C256.25 218.002 262.885 213.206 264.023 206.152Z" stroke="white" stroke-miterlimit="10"/>
<path d="M251.275 217.031C256.192 217.031 260.179 211.239 260.179 204.093C260.179 196.947 256.192 191.154 251.275 191.154C246.357 191.154 242.37 196.947 242.37 204.093C242.37 211.239 246.357 217.031 251.275 217.031Z" stroke="white" stroke-miterlimit="10"/>
<path d="M251.275 217.031C253.193 217.031 254.747 211.239 254.747 204.093C254.747 196.947 253.193 191.154 251.275 191.154C249.357 191.154 247.802 196.947 247.802 204.093C247.802 211.239 249.357 217.031 251.275 217.031Z" stroke="white" stroke-miterlimit="10"/>
<path d="M238.34 204.093H264.202" stroke="white" stroke-miterlimit="10"/>
<path d="M239.696 209.861C242.167 209.031 246.431 208.489 251.275 208.489C256.118 208.489 260.375 209.031 262.846 209.861" stroke="white" stroke-miterlimit="10"/>
<path d="M243.448 214.392C245.67 213.548 248.367 213.05 251.275 213.05C254.138 213.05 256.804 213.533 259.012 214.355" stroke="white" stroke-miterlimit="10"/>
<path d="M239.696 198.393C242.167 199.222 246.431 199.765 251.275 199.765C256.118 199.765 260.375 199.222 262.846 198.393" stroke="white" stroke-miterlimit="10"/>
<path d="M243.448 193.861C245.67 194.705 248.367 195.203 251.275 195.203C254.138 195.203 256.804 194.721 259.012 193.899" stroke="white" stroke-miterlimit="10"/>
<path d="M225.356 233.46H277.186V230.12H225.356V233.46Z" fill="#E3EAFC"/>
<path d="M246.211 227.248H277.188V223.908H246.211V227.248Z" fill="#E3EAFC"/>
<path d="M242.694 223.908H225.36V227.248H242.694V223.908Z" fill="#E3EAFC"/>
<path d="M225.356 239.672H277.186V236.332H225.356V239.672Z" fill="#E3EAFC"/>
<path d="M344.884 181.586H282.433V244.756H344.884V181.586Z" fill="#F0F1FF"/>
<path d="M287.745 196.189H339.574V192.848H287.745V196.189Z" fill="#E4E9F9"/>
<path d="M287.745 202.401H339.574V199.06H287.745V202.401Z" fill="#E4E9F9"/>
<path d="M287.748 208.613H303.885V205.272H287.748V208.613Z" fill="#E4E9F9"/>
<path d="M308.205 208.613H339.506V205.272H308.205V208.613Z" fill="#E4E9F9"/>
<path d="M287.745 214.824H339.574V211.484H287.745V214.824Z" fill="#E4E9F9"/>
<path d="M287.745 221.037H339.574V217.696H287.745V221.037Z" fill="#E4E9F9"/>
<path d="M287.745 227.248H339.574V223.908H287.745V227.248Z" fill="#E4E9F9"/>
<path d="M324.608 233.46H339.577V230.12H324.608V233.46Z" fill="#E4E9F9"/>
<path d="M287.745 233.46H321.035V230.12H287.745V233.46Z" fill="#E4E9F9"/>
<path d="M287.745 239.672H339.574V236.332H287.745V239.672Z" fill="#E4E9F9"/>
<path d="M325.854 189.977H339.58V186.636H325.854V189.977Z" fill="#E4E9F9"/>
<path d="M322.337 186.63H287.751V189.97H322.337V186.63Z" fill="#E4E9F9"/>
<path d="M282.5 244.756H220.049V307.926H282.5V244.756Z" fill="#F0F1FF"/>
<path d="M277.189 293.306H225.36V296.646H277.189V293.306Z" fill="#E4E9F9"/>
<path d="M277.189 287.093H225.36V290.433H277.189V287.093Z" fill="#E4E9F9"/>
<path d="M277.181 280.88H263.855V284.22H277.181V280.88Z" fill="#E4E9F9"/>
<path d="M259.539 280.88H225.428V284.22H259.539V280.88Z" fill="#E4E9F9"/>
<path d="M277.189 274.667H225.36V278.007H277.189V274.667Z" fill="#E4E9F9"/>
<path d="M277.189 268.454H225.36V271.794H277.189V268.454Z" fill="#E4E9F9"/>
<path d="M277.189 262.241H225.36V265.581H277.189V262.241Z" fill="#E4E9F9"/>
<path d="M249.444 256.028H225.36V259.368H249.444V256.028Z" fill="#E4E9F9"/>
<path d="M277.189 256.028H253.015V259.368H277.189V256.028Z" fill="#E4E9F9"/>
<path d="M277.189 249.815H225.36V253.156H277.189V249.815Z" fill="#E4E9F9"/>
<path d="M249.512 299.519H225.36V302.859H249.512V299.519Z" fill="#E4E9F9"/>
<path d="M253.039 302.855H277.19V299.515H253.039V302.855Z" fill="#E4E9F9"/>
<path d="M344.884 244.756H282.433V307.926H344.884V244.756Z" fill="#D3DBF4"/>
<path d="M326.367 288.232L301.311 287.93L298.509 269.909L328.785 269.857L326.367 288.232Z" fill="#C2CFEF"/>
<path d="M328.785 269.857L298.509 269.909L313.621 257.431L328.785 269.857Z" fill="#C2CFEF"/>
<path d="M323.753 268.09L303.089 268.126L303.12 285.596L323.784 285.56L323.753 268.09Z" fill="white"/>
<path d="M298.509 269.909L298.539 289.611L313.666 280.428L298.509 269.909Z" fill="#E3EAFC"/>
<path d="M328.785 269.857L328.816 289.559L313.666 280.428L328.785 269.857Z" fill="#E3EAFC"/>
<path d="M328.815 289.559L298.539 289.611L313.658 277.133L328.815 289.559Z" fill="#E3EAFC"/>
<path d="M298.539 289.611L313.658 277.133L328.815 289.559" stroke="#D3DBF4" stroke-miterlimit="10"/>
<path d="M315.835 278.912L328.785 269.857" stroke="#D3DBF4" stroke-miterlimit="10"/>
<path d="M311.489 278.92L298.509 269.909" stroke="#D3DBF4" stroke-miterlimit="10"/>
<path d="M301.591 300.48H325.743V297.14H301.591V300.48Z" fill="#E3EAFC"/>
<path d="M344.959 112.957H220.049V175.984H344.959V112.957Z" fill="#D3DBF4"/>
<path d="M280.745 126.383L339.581 126.383V122.025H280.745V126.383Z" fill="#E3EAFC"/>
<path d="M280.745 134.486H339.581V130.128H280.745V134.486Z" fill="#E3EAFC"/>
<path d="M280.745 142.596H339.581V138.238H280.745V142.596Z" fill="#E3EAFC"/>
<path d="M280.745 150.707H339.581V146.348H280.745V150.707Z" fill="#E3EAFC"/>
<path d="M280.745 166.92H339.581V162.562H280.745V166.92Z" fill="#E3EAFC"/>
<path d="M304.412 158.817H339.578V154.459H304.412V158.817Z" fill="#E3EAFC"/>
<path d="M300.414 154.449H280.737V158.808H300.414V154.449Z" fill="#E3EAFC"/>
<path d="M271.713 122.201H227.206V166.747H271.713V122.201Z" fill="#E3EAFC"/>
<path d="M253.587 136.127L267.132 159.305H240.042L253.587 136.127Z" fill="white"/>
<path d="M239.861 143.743L242.754 149.322L237.571 159.305H231.786L239.861 143.743Z" fill="white"/>
<path d="M232.931 134.785C232.931 136.172 234.053 137.296 235.439 137.296C236.825 137.296 237.948 136.172 237.948 134.785C237.948 133.398 236.825 132.274 235.439 132.274C234.053 132.274 232.931 133.398 232.931 134.785Z" fill="white"/>
<path d="M247.274 107.807H317.726C318.834 107.807 319.73 106.91 319.73 105.801C319.73 104.693 318.834 103.796 317.726 103.796H247.274C246.167 103.796 245.271 104.693 245.271 105.801C245.271 106.902 246.167 107.807 247.274 107.807Z" fill="#D3DBF4"/>
<path d="M282.5 181.586V307.919" stroke="white" stroke-miterlimit="10"/>
<path d="M220.049 244.756H344.952" stroke="white" stroke-miterlimit="10"/>
<path d="M72.4932 337.807H492.507" stroke="#849CF4" stroke-miterlimit="10"/>
<path d="M469.364 316.816L470.675 338.335L469.974 345.106L444.339 344.97C443.691 344.97 443.171 344.442 443.171 343.794C443.171 343.311 443.472 342.874 443.924 342.701L455.36 337.438L452.776 315.044" fill="#FFCBBD"/>
<path d="M442.011 344.684C442.282 343.832 442.779 342.882 443.284 342.663L455.412 337.438C462.095 340.152 470.75 338.079 470.75 338.079L471.413 347.217C471.413 347.519 471.165 347.76 470.863 347.76L442.222 347.609C441.626 347.602 442.003 344.714 442.011 344.684Z" fill="#F7471E"/>
<path d="M452.783 337.958C453.461 338.848 454.034 339.813 454.493 340.831" stroke="#B22B19" stroke-width="0.75" stroke-miterlimit="10"/>
<path d="M451.262 338.878C451.962 339.85 452.249 340.416 452.67 341.321" stroke="#B22B19" stroke-width="0.75" stroke-miterlimit="10"/>
<path d="M449.966 339.541C450.44 340.182 450.915 341.072 451.284 341.781" stroke="#B22B19" stroke-width="0.75" stroke-miterlimit="10"/>
<path d="M471.247 345.784L441.89 345.634" stroke="#B22B19" stroke-width="0.75" stroke-miterlimit="10"/>
<path d="M470.984 341.411C470.984 341.411 464.181 341.456 463.571 345.739" stroke="#B22B19" stroke-width="0.75" stroke-miterlimit="10"/>
<path d="M445.77 341.592C445.77 341.592 447.728 344.382 448.112 345.664" stroke="#B22B19" stroke-width="0.75" stroke-miterlimit="10"/>
<path d="M449.227 234.117C449.227 234.117 445.544 264.405 446.952 286.399C448.361 308.394 450.395 333.916 450.395 333.916H472.679C472.679 333.916 469.793 296.149 470.11 278.475C470.464 258.886 476.445 234.125 476.445 234.125" fill="#0E32AE"/>
<path d="M468.159 333.909C468.159 333.909 465.274 296.141 465.59 278.467C465.944 258.878 471.926 234.117 471.926 234.117" stroke="#121649" stroke-width="0.75" stroke-miterlimit="10"/>
<path d="M498.639 287.998L519.303 294.648L525.54 297.363L517.66 321.777C517.464 322.395 516.801 322.735 516.184 322.531C515.724 322.38 515.4 321.966 515.37 321.475L513.818 308.974L492.363 301.992" fill="#FFCBBD"/>
<path d="M516.681 323.911C515.95 323.398 515.197 322.629 515.144 322.086L513.833 308.936C518.436 303.379 519.077 294.497 519.077 294.497L527.981 296.631C528.267 296.722 528.426 297.031 528.335 297.317L519.529 324.597C519.348 325.17 516.711 323.926 516.681 323.911Z" fill="#F7471E"/>
<path d="M513.54 311.598C514.587 311.221 515.687 310.965 516.794 310.837" stroke="#B22B19" stroke-width="0.75" stroke-miterlimit="10"/>
<path d="M513.946 313.332C515.091 312.955 515.709 312.857 516.696 312.729" stroke="#B22B19" stroke-width="0.75" stroke-miterlimit="10"/>
<path d="M514.195 314.765C514.948 314.501 515.943 314.328 516.726 314.184" stroke="#B22B19" stroke-width="0.75" stroke-miterlimit="10"/>
<path d="M526.58 296.352L517.547 324.318" stroke="#B22B19" stroke-width="0.75" stroke-miterlimit="10"/>
<path d="M522.331 295.281C522.331 295.281 520.319 301.781 524.214 303.658" stroke="#B22B19" stroke-width="0.75" stroke-miterlimit="10"/>
<path d="M514.873 319.394C514.873 319.394 518.12 318.369 519.461 318.392" stroke="#B22B19" stroke-width="0.75" stroke-miterlimit="10"/>
<path d="M485.501 235.09C485.501 235.09 487.504 243.7 487.504 247.395C487.504 250.109 486.427 251.957 485.855 253.94C485.606 254.792 485.47 255.659 485.433 256.541C485.259 260.5 485.034 271.613 487.512 276.899C490.555 283.391 515.898 292.009 515.898 292.009L509.472 311.379C509.472 311.379 470.675 301.623 465.839 289.74C459.089 273.159 461.017 235.097 461.017 235.097" fill="#0E32AE"/>
<path d="M470.517 295.282C468.279 293.51 466.615 291.647 465.839 289.732C459.089 273.152 461.017 235.09 461.017 235.09" stroke="#121649" stroke-width="0.75" stroke-miterlimit="10"/>
<path d="M482.216 234.373C482.216 234.373 484.491 245.208 484.491 248.903C484.491 251.67 483.368 253.615 482.811 255.561C482.585 256.345 482.449 257.152 482.397 257.974C482.156 261.887 481.726 273.219 484.498 278.415C488.333 285.608 514.88 295.078 514.88 295.078" stroke="#121649" stroke-width="0.75" stroke-miterlimit="10"/>
<path d="M457.846 237.208C457.846 237.208 457.507 245.027 458.599 245.962C459.691 246.897 460.754 247.523 460.754 247.523" stroke="#121649" stroke-width="0.75" stroke-miterlimit="10"/>
<path d="M512.696 290.863L505.622 310.331" stroke="#121649" stroke-width="0.75" stroke-miterlimit="10"/>
<path d="M450.094 330.079H472.392" stroke="#121649" stroke-width="0.75" stroke-miterlimit="10"/>
<path d="M476.106 235.693C476.106 235.693 477.493 240.684 483.685 242.155" stroke="#121649" stroke-width="0.75" stroke-miterlimit="10"/>
<path d="M448.512 241.28C448.512 241.28 454.101 239.644 455.819 235.693" stroke="#121649" stroke-width="0.75" stroke-miterlimit="10"/>
<path d="M461.989 175.29L460.987 182.31C460.987 182.31 460.897 184.255 464.679 185.605C469.252 187.248 472.031 183.72 472.031 183.72L471.73 176.617" fill="#FFCBBB"/>
<path d="M461.432 165.986C461.432 165.986 456.573 174.114 459.948 177.363C463.006 180.312 469.733 178.464 470.351 177.431C470.961 176.398 474.796 167.32 472.702 166.069C468.973 163.852 463.511 162.487 461.432 165.986Z" fill="#FFCBBB"/>
<path d="M461.484 178.879C461.484 178.879 464.776 179.935 467.82 178.608" stroke="#EF977F" stroke-miterlimit="10"/>
<path d="M460.618 160.708C461.259 155.905 467.074 159.501 469.44 161.688C470.148 162.344 474.299 163.565 474.977 164.259C475.655 164.953 476.197 165.805 476.378 166.762C476.536 167.599 476.401 168.459 476.197 169.281C475.836 170.766 475.248 172.183 474.668 173.593C474.035 175.132 472.898 178.193 470.705 177.876C470.284 177.816 469.816 177.733 469.538 177.409C469.259 177.084 469.251 176.617 469.297 176.195C469.372 175.509 469.583 174.838 469.899 174.227C469.447 174.347 468.98 174.626 468.543 174.453C468.4 174.393 468.332 174.257 468.25 174.121C467.963 173.654 468.31 170.547 469.756 169.326C467.669 168.338 466.035 168.248 463.91 167.35C462.2 166.626 461.462 165.752 460.852 164.93C459.97 163.746 460.43 162.155 460.618 160.708Z" fill="#4A1A1A"/>
<path d="M469.387 173.94C469.922 173.194 470.735 172.334 471.519 173.118C471.797 173.397 471.873 173.857 471.903 174.302C472.001 175.765 470.517 177.635 469.229 177.122C468.596 176.873 468.423 176.014 468.31 175.305" fill="#FFCBBB"/>
<path d="M462.509 169.575C462.509 169.575 460.407 171.641 460.407 172.342C460.407 173.043 461.982 173.48 461.982 173.48" stroke="#F7A794" stroke-width="0.5" stroke-miterlimit="10"/>
<path d="M459.609 173.729L463.375 175.139C463.375 175.139 462.501 177.371 460.241 176.346C458.629 175.614 459.609 173.729 459.609 173.729Z" fill="white"/>
<path d="M460.912 168.421C460.799 168.587 460.694 168.753 460.596 168.934C460.407 169.273 460.935 169.575 461.108 169.235C461.213 169.039 461.304 168.836 461.387 168.625C461.5 168.331 461.07 168.195 460.912 168.421Z" fill="#212237"/>
<path d="M462.531 167.705C462.531 167.705 462.064 166.657 460.942 167.147" stroke="#212237" stroke-width="0.5" stroke-miterlimit="10" stroke-linecap="round" stroke-linejoin="round"/>
<path d="M465.613 170.683C465.507 170.856 465.417 171.03 465.326 171.211C465.161 171.558 465.688 171.859 465.839 171.512C465.929 171.309 466.012 171.098 466.087 170.887C466.178 170.6 465.763 170.442 465.613 170.683Z" fill="#212237"/>
<path d="M465.764 168.949C465.764 168.949 466.909 168.821 467.737 170.329" stroke="#212237" stroke-width="0.5" stroke-miterlimit="10" stroke-linecap="round" stroke-linejoin="round"/>
<path d="M445.702 144.572C445.393 140.493 445.943 128.949 445.227 128.647C444.512 128.346 444.218 132.252 443.676 131.897C443.133 131.535 443.178 125.488 442.387 125.375C441.31 125.224 441.596 131.415 441.596 131.415C441.596 131.415 440.949 124.644 439.969 124.779C439.276 124.877 439.54 130.065 439.389 132.063C439.276 129.877 438.636 125.812 437.92 125.933C437.212 126.046 437.348 130.133 437.287 132.847C437.167 131.151 436.828 127.441 436.165 127.516C435.502 127.592 435.299 137.236 435.291 145.364" fill="#FFCBBD"/>
<path d="M444.677 185.401C444.677 185.401 440.301 176.232 437.566 165.548C434.831 154.857 435.314 140.96 435.314 140.96L445.589 142.695C445.589 142.695 446.056 162.095 457.755 181.352" fill="#FFCBBD"/>
<path d="M437.43 133.307C438.274 134.597 439.396 136.112 439.344 138.63" stroke="#F7A794" stroke-miterlimit="10"/>
<path d="M443.585 132.817C442.598 133.699 441.529 136.074 442.041 137.296" stroke="#F7A794" stroke-miterlimit="10"/>
<path d="M478.773 142.604C480.273 140.84 481.606 138.879 482.698 136.723C483.798 134.566 484.604 132.342 485.147 130.088L479.06 128.022C479.512 125.918 479.67 123.792 479.557 121.696L485.9 120.617C485.523 115.89 484.032 111.298 481.568 107.249L475.798 110.099C474.66 108.335 473.289 106.706 471.685 105.274L475.406 100.026C473.643 98.5252 471.685 97.1906 469.53 96.0973C467.376 94.9965 465.153 94.1897 462.901 93.6468L460.837 99.7391C458.735 99.2867 456.61 99.1284 454.516 99.2415L453.439 92.8928C448.715 93.2698 444.128 94.7627 440.082 97.2283L442.93 103.004C441.167 104.143 439.54 105.515 438.108 107.121L432.865 103.396C431.366 105.16 430.033 107.121 428.94 109.277C427.841 111.434 427.035 113.658 426.492 115.912L432.579 117.978C432.127 120.082 431.969 122.208 432.082 124.304L425.739 125.383C426.115 130.11 427.607 134.702 430.07 138.751L435.841 135.901C436.978 137.665 438.35 139.294 439.954 140.727L436.233 145.974C437.995 147.475 439.954 148.809 442.109 149.903C444.263 151.004 446.486 151.81 448.738 152.353L450.802 146.261C452.904 146.713 455.028 146.872 457.123 146.759L458.2 153.107C462.923 152.73 467.511 151.237 471.557 148.772L468.709 142.996C470.472 141.858 472.099 140.485 473.53 138.879L478.773 142.604ZM450.561 133.322C444.866 130.412 442.606 123.437 445.506 117.737C448.414 112.037 455.382 109.775 461.078 112.678C466.773 115.588 469.033 122.563 466.133 128.263C463.225 133.963 456.256 136.225 450.561 133.322Z" fill="#ADBBF9"/>
<path d="M461.138 181.314C458.079 181.314 453.311 171.527 453.311 171.527L441.031 180.666C441.031 180.666 444.956 192.888 451.608 200.632" fill="#F7471E"/>
<path d="M454.335 173.48L441.822 182.89" stroke="#B22B19" stroke-width="0.75" stroke-miterlimit="10"/>
<path d="M492.891 139.573C492.235 135.087 490.525 124.516 489.772 124.342C489.019 124.169 488.702 126.687 489.011 127.713C488.529 125.79 487.203 121.59 486.405 121.62C485.32 121.658 486.683 127.705 486.683 127.705C486.683 127.705 484.86 121.153 483.926 121.462C483.263 121.681 484.431 126.74 484.627 128.738C484.137 126.612 482.796 122.721 482.111 122.962C481.433 123.204 482.284 127.2 482.698 129.884C482.284 128.233 481.305 124.644 480.664 124.832C480.024 125.021 481.689 133.315 482.683 141.586" fill="#FFCBBD"/>
<path d="M490.774 181.759C490.774 181.759 493.494 171.972 494.337 160.971C495.181 149.971 492.303 136.368 492.303 136.368L482.48 139.859C482.48 139.859 485.38 159.041 477.191 180.048" fill="#FFCBBD"/>
<path d="M461.138 181.314C461.138 181.314 461.733 183.034 465.123 183.207C469.485 183.433 471.911 181.314 471.911 181.314C471.911 181.314 484.913 183.041 485.968 197.262C487.181 213.638 487.512 236.643 487.512 236.643H446.953C446.953 236.643 447.224 210.374 448.075 197.835C448.896 185.823 461.138 181.314 461.138 181.314Z" fill="#F7471E"/>
<path d="M485.93 199.056C490.819 186.329 492.56 176.617 492.56 176.617L479.542 170.306C479.542 170.306 476.446 178.954 471.911 181.307" fill="#F7471E"/>
<path d="M478.487 172.809L492.002 179.279" stroke="#B22B19" stroke-width="0.75" stroke-miterlimit="10"/>
<path d="M446.953 234.396H487.467" stroke="#B22B19" stroke-width="0.75" stroke-miterlimit="10"/>
<path d="M486.284 198.121C486.284 198.121 484.634 201.657 484.461 203.437" stroke="#B22B19" stroke-width="0.75" stroke-miterlimit="10"/>
<path d="M451.081 188.771C451.081 188.771 448.618 192.949 448.075 197.835" stroke="#B22B19" stroke-width="0.75" stroke-miterlimit="10"/>
<path d="M459.594 180.666C459.594 180.666 460.287 185.401 465.56 185.401C472.039 185.401 473.319 180.666 473.319 180.666" stroke="#B22B19" stroke-width="0.75" stroke-miterlimit="10"/>
<path d="M489.011 127.72C489.004 127.675 489.072 127.795 489.094 127.841L489.192 128.022L489.358 128.391C489.471 128.64 489.554 128.889 489.637 129.145C489.795 129.658 489.915 130.171 489.968 130.721C489.802 130.495 489.682 130.254 489.569 130.012C489.448 129.771 489.365 129.515 489.282 129.258C489.207 129.002 489.132 128.746 489.087 128.474L489.019 128.074L489.004 127.871L488.996 127.765C488.989 127.743 489.004 127.637 489.011 127.72Z" fill="#EF977F"/>
<path d="M393.089 315.647L393.798 337.98L393.074 345.008L366.474 344.865C365.804 344.865 365.261 344.314 365.261 343.643C365.261 343.138 365.578 342.685 366.045 342.512L377.91 337.053L376.117 313.815" fill="#FFCBBD"/>
<path d="M364.056 344.57C364.335 343.688 364.855 342.701 365.374 342.474L377.955 337.053C384.893 339.865 393.865 337.717 393.865 337.717L394.551 347.202C394.551 347.519 394.295 347.767 393.978 347.767L364.259 347.609C363.649 347.602 364.041 344.601 364.056 344.57Z" fill="#18277A"/>
<path d="M375.228 337.588C375.936 338.508 376.531 339.511 376.998 340.567" stroke="#121649" stroke-width="0.75" stroke-miterlimit="10"/>
<path d="M373.646 338.538C374.377 339.549 374.671 340.137 375.107 341.072" stroke="#121649" stroke-width="0.75" stroke-miterlimit="10"/>
<path d="M372.305 339.232C372.802 339.896 373.285 340.823 373.676 341.562" stroke="#121649" stroke-width="0.75" stroke-miterlimit="10"/>
<path d="M394.393 345.709L363.92 345.551" stroke="#121649" stroke-width="0.75" stroke-miterlimit="10"/>
<path d="M394.122 341.177C394.122 341.177 387.063 341.23 386.43 345.671" stroke="#121649" stroke-width="0.75" stroke-miterlimit="10"/>
<path d="M367.951 341.358C367.951 341.358 369.985 344.246 370.384 345.581" stroke="#121649" stroke-width="0.75" stroke-miterlimit="10"/>
<path d="M390.001 227.897C390.001 227.897 393.24 233.355 394.174 237.42C395.658 243.889 394.174 250.509 394.174 250.509L394.106 328.578H374.354C374.354 328.578 369.97 238.611 371.921 226.977" fill="#0D219B"/>
<path d="M377.367 328.586C377.367 328.586 372.983 238.618 374.934 226.984" stroke="#121649" stroke-width="0.75" stroke-miterlimit="10"/>
<path d="M371.273 306.855L380.245 327.311L382.189 334.097L357.457 343.899C356.831 344.148 356.123 343.839 355.875 343.213C355.686 342.746 355.814 342.21 356.183 341.871L365.163 332.378L354.85 311.485" fill="#FFCBBD"/>
<path d="M355.106 344.525C355.039 343.605 355.152 342.489 355.551 342.09L365.209 332.363C372.689 332.386 380.222 327.04 380.222 327.04L384.388 335.583C384.501 335.877 384.358 336.201 384.072 336.322L356.432 347.262C355.86 347.488 355.106 344.555 355.106 344.525Z" fill="#0E32AE"/>
<path d="M362.881 333.879C363.875 334.467 364.802 335.176 365.638 335.982" stroke="#121649" stroke-width="0.75" stroke-miterlimit="10"/>
<path d="M361.758 335.349C362.813 336.013 363.303 336.45 364.056 337.159" stroke="#121649" stroke-width="0.75" stroke-miterlimit="10"/>
<path d="M360.779 336.488C361.487 336.925 362.285 337.596 362.911 338.139" stroke="#121649" stroke-width="0.75" stroke-miterlimit="10"/>
<path d="M383.68 334.263L355.347 345.483" stroke="#121649" stroke-width="0.75" stroke-miterlimit="10"/>
<path d="M381.737 330.154C381.737 330.154 375.205 332.831 376.275 337.196" stroke="#121649" stroke-width="0.75" stroke-miterlimit="10"/>
<path d="M357.524 340.092C357.524 340.092 360.485 342.014 361.359 343.1" stroke="#121649" stroke-width="0.75" stroke-miterlimit="10"/>
<path d="M355.95 240.624C345.803 265.589 345.622 268.228 343.949 280.413C342.232 292.914 360.997 329.717 360.997 329.717L379.002 321.762C379.002 321.762 367.062 288.088 367.83 282.298C369.254 271.644 381.533 253.472 381.533 253.472C381.533 253.472 387.364 248.85 388.637 242.713C389.903 236.575 387.115 230.143 387.115 230.143" fill="#0E32AE"/>
<path d="M374.467 243.565C374.73 243.474 382.55 241.016 382.55 241.016" stroke="#121649" stroke-width="0.75" stroke-miterlimit="10"/>
<path d="M391.703 238.724L394.28 237.91" stroke="#121649" stroke-width="0.75" stroke-miterlimit="10"/>
<path d="M361.977 239.87C361.977 239.87 349.434 267.157 347.716 279.659C345.998 292.16 364.252 327.937 364.252 327.937" stroke="#121649" stroke-width="0.75" stroke-miterlimit="10"/>
<path d="M372.011 270.294C375.906 261.713 381.541 253.465 381.541 253.465C381.541 253.465 387.372 248.843 388.645 242.705" stroke="#121649" stroke-width="0.75" stroke-miterlimit="10"/>
<path d="M354.248 178.849L359.408 187.844C359.408 187.844 356.312 194.547 347.95 191.365L345.803 186.615L354.248 178.849Z" fill="#FFCBBD"/>
<path d="M340.529 172.764C340.529 172.764 337.991 184.722 342.413 186.856C344.71 187.965 351.144 187.279 352.666 184.828C353.796 183.003 353.351 174.385 351.973 173.337C346.699 169.333 340.529 172.764 340.529 172.764Z" fill="#FFCBBD"/>
<path d="M351.731 169.22C349.795 165.842 345.863 166.513 339.46 170.163C338.601 170.653 336.74 170.826 336.718 171.814C336.687 173.111 337.622 175.245 339.121 175.674C340.123 175.961 340.65 175.871 341.667 175.629C343 175.32 344.778 175.855 344.756 177.424C344.748 177.831 344.628 178.585 345.012 178.736C345.208 178.811 345.705 178.751 345.916 178.758C346.518 178.781 346.842 179.512 346.767 180.108C346.692 180.704 347.068 181.141 346.993 181.737C346.812 183.147 348.613 184.692 350.029 184.805C351.279 184.903 354.941 184.293 356.673 181.933C358.18 179.889 357.984 176.436 355.476 171.294C354.511 169.326 352.402 168.723 351.731 169.22Z" fill="#212237"/>
<path d="M344.635 179.271C345.042 177.356 346.029 177.145 346.888 177.665C348.025 178.359 347.777 181.088 347.355 181.744C346.504 183.071 345.479 183.478 344.906 182.536" fill="#FFCBBD"/>
<path d="M346.209 187.354C347.528 186.261 347.332 184.165 347.332 184.165" stroke="#E88872" stroke-width="0.5" stroke-miterlimit="10" stroke-linejoin="round"/>
<path d="M340.914 178.479C340.733 178.894 340.673 179.505 341.012 179.769C341.11 179.844 341.223 179.844 341.328 179.776C341.991 179.362 341.298 177.62 340.914 178.479Z" fill="#28364C"/>
<path d="M340.371 177.16C340.883 177.1 341.78 177.145 342.315 177.567" stroke="#28364C" stroke-width="0.75" stroke-miterlimit="10"/>
<path d="M342.578 182.883L340.65 182.815C340.65 182.815 340.575 185.19 341.479 185.235C342.481 185.288 342.578 182.883 342.578 182.883Z" fill="white"/>
<path d="M358.218 185.763C358.218 185.763 362.715 184.609 369.081 186.464C374.452 188.033 381.285 192.059 386.43 197.533C395.334 207.011 391.229 230.573 391.229 230.573L379.65 230.136C379.65 230.136 381.466 214.996 375.401 208.926C369.337 202.856 360.779 201.431 360.779 201.431" fill="#ADBBF9"/>
<path d="M309.085 218.856C305.454 219.866 294.463 221.058 294.29 221.812C294.117 222.566 297.989 222.196 297.725 222.784C297.461 223.373 291.548 224.345 291.57 225.144C291.601 226.223 297.612 224.903 297.612 224.903C297.612 224.903 295.119 225.348 295.412 226.283C295.623 226.939 296.64 227.143 298.614 226.954C297.529 227.195 297.107 227.723 297.341 228.402C297.574 229.073 298.622 229.028 299.736 228.884C298.968 229.058 298.38 229.563 298.878 230.008C299.526 230.588 304.008 230.34 311.956 228.99" fill="#FFCBBD"/>
<path d="M346.774 188.771C346.774 188.771 349.871 190.106 353.298 188.771C356.726 187.437 358.21 185.763 358.21 185.763C358.21 185.763 365.992 185.228 375.469 194.713C385.036 204.289 392.479 231.455 392.479 231.455L353.261 244.65C353.261 244.65 346.556 220.869 343.912 210.042C341.275 199.199 346.774 188.771 346.774 188.771Z" fill="#ADBBF9"/>
<path d="M374.957 192.217C382.799 201.378 392.48 231.448 392.48 231.448" stroke="#525BCE" stroke-width="0.75" stroke-miterlimit="10"/>
<path d="M346.775 188.771C341.607 190.754 337.17 195.769 334.45 200.941C329.99 209.408 327.271 215.554 327.271 215.554L304.784 218.924L305.899 230.928C305.899 230.928 321.161 230.475 333.335 228.643C341.983 227.339 348.673 209.408 348.673 209.408" fill="#ADBBF9"/>
<path d="M345.26 189.45C345.26 189.45 347.746 192.775 353.713 190.536C359.679 188.296 359.89 185.529 359.89 185.529" stroke="#525BCE" stroke-width="0.75" stroke-miterlimit="10"/>
<path d="M345.803 215.576L348.251 210.411" stroke="#525BCE" stroke-width="0.75" stroke-miterlimit="10"/>
<path d="M308.302 218.396L309.146 230.762" stroke="#525BCE" stroke-width="0.75" stroke-miterlimit="10"/>
<path d="M352.538 242.079L391.703 229.118" stroke="#525BCE" stroke-width="0.75" stroke-miterlimit="10"/>
<path d="M198.285 209.22C198.458 209.333 198.639 209.454 198.82 209.567C200.575 210.683 202.368 211.806 204.357 212.394C205.517 212.734 206.775 212.915 207.716 213.669C208.101 213.97 208.425 214.294 208.846 214.543C208.959 214.611 210.067 215.026 210.022 214.905C210.187 215.305 210.624 215.501 211.024 215.659C211.069 215.674 211.121 215.697 211.167 215.689C211.212 215.682 211.257 215.629 211.242 215.584C211.385 215.863 211.89 215.991 212.056 215.833C212.214 215.682 211.815 214.973 211.815 214.973C211.815 214.973 212.086 214.988 212.169 214.905C212.297 214.762 212.327 214.551 212.342 214.355C212.462 212.538 211.754 210.683 210.436 209.393" fill="#FFCBBD"/>
<path d="M210.805 212.975C210.805 213.284 210.986 213.601 211.107 213.887C211.235 214.196 211.37 214.49 211.528 214.792C211.604 214.928 211.792 214.83 211.762 214.694C211.694 214.34 211.574 214.015 211.415 213.684C211.287 213.412 211.152 213.095 210.896 212.93C210.858 212.892 210.805 212.93 210.805 212.975Z" fill="#F49C8E"/>
<path d="M208.914 213.035C209.585 213.767 210.255 214.46 210.843 215.259C210.903 215.342 211.061 215.297 211.024 215.184C210.737 214.196 209.751 213.593 209.042 212.907C208.96 212.824 208.839 212.952 208.914 213.035Z" fill="#F49C8E"/>
<path d="M196.778 347.76L183.391 211.022" stroke="#0E32AE" stroke-miterlimit="10"/>
<path d="M248.886 347.76L235.507 211.022H183.391" stroke="#0E32AE" stroke-miterlimit="10"/>
<path d="M222.12 347.76L235.507 211.022" stroke="#0E32AE" stroke-miterlimit="10"/>
<path d="M170.004 347.76L183.391 211.022H235.507" stroke="#0E32AE" stroke-miterlimit="10"/>
<path d="M246.747 328.39H171.903" stroke="#0E32AE" stroke-miterlimit="10"/>
<path d="M245.006 311.643H173.545" stroke="#0E32AE" stroke-miterlimit="10"/>
<path d="M243.673 294.437H175.225" stroke="#0E32AE" stroke-miterlimit="10"/>
<path d="M242 278.045H176.83" stroke="#0E32AE" stroke-miterlimit="10"/>
<path d="M240.388 260.914H178.434" stroke="#0E32AE" stroke-miterlimit="10"/>
<path d="M238.724 243.934H180.114" stroke="#0E32AE" stroke-miterlimit="10"/>
<path d="M236.78 227.904H181.741" stroke="#0E32AE" stroke-miterlimit="10"/>
<path d="M195.377 210.675C200.726 210.69 206.074 210.683 211.415 210.637C210.911 209.733 210.594 209.167 210.022 208.594C209.314 207.893 208.771 207.478 208.033 207.101C205.547 205.827 202.76 205.141 199.965 205.111" fill="#FFCBBD"/>
<path d="M176.709 173.782C176.709 173.782 184.024 192.866 185.847 194.464C187.678 196.063 205.095 204.734 205.095 204.734L199.754 216.044C199.754 216.044 178.796 207.667 175.79 204.734C172.784 201.801 163.232 190.445 162.275 179.052" fill="#E23917"/>
<path d="M162.742 298.494L161.989 319.025L162.622 325.487L187.09 325.479C187.708 325.479 188.205 324.974 188.205 324.356C188.205 323.896 187.919 323.474 187.489 323.308L176.603 318.233L178.359 296.872" fill="#FFCBBD"/>
<path d="M189.312 325.223C189.056 324.409 188.589 323.496 188.107 323.285L176.558 318.241C170.17 320.797 161.921 318.776 161.921 318.776L161.243 327.492C161.243 327.779 161.477 328.013 161.763 328.013L189.094 328.005C189.674 328.013 189.327 325.253 189.312 325.223Z" fill="#F7471E"/>
<path d="M179.067 318.754C178.412 319.598 177.862 320.518 177.425 321.491" stroke="#B22B19" stroke-width="0.75" stroke-miterlimit="10"/>
<path d="M180.521 319.636C179.843 320.563 179.572 321.098 179.165 321.958" stroke="#B22B19" stroke-width="0.75" stroke-miterlimit="10"/>
<path d="M181.749 320.277C181.289 320.887 180.837 321.732 180.483 322.41" stroke="#B22B19" stroke-width="0.75" stroke-miterlimit="10"/>
<path d="M161.409 326.135L189.433 326.128" stroke="#B22B19" stroke-width="0.75" stroke-miterlimit="10"/>
<path d="M161.68 321.966C161.68 321.966 168.166 322.041 168.731 326.135" stroke="#B22B19" stroke-width="0.75" stroke-miterlimit="10"/>
<path d="M185.749 322.26C185.749 322.26 183.866 324.906 183.489 326.135" stroke="#B22B19" stroke-width="0.75" stroke-miterlimit="10"/>
<path d="M157.341 221.299C157.341 221.299 154.983 231.765 160.053 244.447C160.053 244.447 162.509 257.702 162.705 272.858C162.908 288.315 160.852 308.009 160.852 315.368H180.981C180.981 315.368 183.452 294.422 183.67 273.31C183.919 249.665 181.915 222.973 181.915 216.081" fill="#ADBBF9"/>
<path d="M177.967 315.368C177.967 315.368 180.438 294.037 180.664 272.654C180.905 249.167 178.901 222.905 178.901 216.074" stroke="#525BCE" stroke-width="0.75" stroke-miterlimit="10"/>
<path d="M196.77 281.785L196.017 302.324L196.65 308.786L221.118 308.778C221.736 308.778 222.233 308.273 222.233 307.655C222.233 307.195 221.947 306.772 221.517 306.607L210.632 301.532L212.387 280.171" fill="#FFCBBD"/>
<path d="M223.341 308.514C223.085 307.7 222.617 306.788 222.135 306.576L210.587 301.532C204.198 304.088 195.949 302.067 195.949 302.067L195.271 310.784C195.271 311.07 195.505 311.304 195.791 311.304L223.122 311.296C223.702 311.296 223.356 308.537 223.341 308.514Z" fill="#F7471E"/>
<path d="M213.095 302.045C212.44 302.889 211.89 303.809 211.453 304.782" stroke="#B22B19" stroke-width="0.75" stroke-miterlimit="10"/>
<path d="M214.549 302.92C213.871 303.847 213.6 304.382 213.193 305.242" stroke="#B22B19" stroke-width="0.75" stroke-miterlimit="10"/>
<path d="M215.777 303.568C215.318 304.179 214.866 305.023 214.512 305.702" stroke="#B22B19" stroke-width="0.75" stroke-miterlimit="10"/>
<path d="M195.437 309.427L223.461 309.411" stroke="#B22B19" stroke-width="0.75" stroke-miterlimit="10"/>
<path d="M195.708 305.257C195.708 305.257 202.195 305.332 202.76 309.427" stroke="#B22B19" stroke-width="0.75" stroke-miterlimit="10"/>
<path d="M219.778 305.543C219.778 305.543 217.894 308.19 217.518 309.419" stroke="#B22B19" stroke-width="0.75" stroke-miterlimit="10"/>
<path d="M191.249 222.445C191.249 222.445 210.587 240.79 214.949 252.741C217.984 261.073 213.57 299.089 213.57 299.089H194.307C194.307 299.089 196.658 264.481 195.437 260.907C194.006 256.707 177.425 242.388 177.425 242.388C177.425 242.388 170.351 240.805 167.014 233.273C164.008 226.487 165.394 218.253 165.394 218.253" fill="#ADBBF9"/>
<path d="M186.729 222.445C186.729 222.445 206.775 243.655 210.428 252.741C213.201 259.64 209.05 299.089 209.05 299.089" stroke="#525BCE" stroke-width="0.75" stroke-miterlimit="10"/>
<path d="M183.256 247.614C181.734 246.234 179.105 243.866 178.306 243.157C177.794 242.705 177.206 242.351 176.558 242.125C174.57 241.431 169.635 239.184 167.014 233.273" stroke="#525BCE" stroke-width="0.75" stroke-miterlimit="10"/>
<path d="M172.34 229.05C172.34 229.05 178.11 229.254 180.521 229.05" stroke="#525BCE" stroke-width="0.75" stroke-miterlimit="10"/>
<path d="M156.791 229.05H161.447" stroke="#525BCE" stroke-width="0.75" stroke-miterlimit="10"/>
<path d="M225.812 175.984C227.83 175.064 237.036 171.03 237.255 171.588C237.466 172.123 234.55 174.068 234.874 174.159C235.055 174.212 237.654 173.533 238.957 172.892C240.117 172.319 242.076 171.595 242.392 172.07C242.988 172.968 236.577 176.021 236.577 176.021C236.577 176.021 237.707 175.501 238.287 176.202C239.115 177.213 237.36 178.148 237.36 178.148C237.36 178.148 238.37 177.635 238.701 178.51C239.048 179.414 237.541 180.153 237.541 180.153C237.541 180.153 238.739 179.58 238.889 180.673C239.085 182.114 229.518 185.492 229.518 185.492" fill="#FFCBBD"/>
<path d="M179.173 166.664C179.173 166.664 177.252 168.195 174.178 167.667C171.104 167.147 170.359 165.661 170.359 165.661C170.359 165.661 162.185 166.8 158.26 192.021C155.503 209.74 156.414 224.157 156.414 224.157H193.667C193.667 224.157 194.804 185.62 192.913 178.457" fill="#F7471E"/>
<path d="M182.103 185.205C182.103 185.205 193.139 197.405 203.437 197.405C213.735 197.405 233.119 186.464 233.119 186.464L228.486 173.744L205.961 181.827C205.961 181.827 194.104 170.736 188.627 168.692C183.158 166.649 179.165 166.664 179.165 166.664" fill="#F7471E"/>
<path d="M193.968 194.6C193.968 194.6 187.037 189.307 183.692 186.826" stroke="#B22B19" stroke-width="0.75" stroke-miterlimit="10"/>
<path d="M226.331 174.521L230.572 187.837" stroke="#B22B19" stroke-width="0.75" stroke-miterlimit="10"/>
<path d="M156.301 221.058H193.749" stroke="#B22B19" stroke-width="0.75" stroke-miterlimit="10"/>
<path d="M187.392 189.601C187.753 200.323 187.392 224.157 187.392 224.157" stroke="#B22B19" stroke-width="0.75" stroke-miterlimit="10"/>
<path d="M170.494 160.165L169.65 166.973C169.65 166.973 176.212 170.419 180.566 166.755V162.789L170.494 160.165Z" fill="#FFCBBD"/>
<path d="M179.399 149.488C179.399 149.488 187.068 159.169 184.265 162.751C182.811 164.613 178.05 164.168 175.783 162.751C174.103 161.695 169.402 156.086 170.125 154.645C172.867 149.164 179.399 149.488 179.399 149.488Z" fill="#FFCBBD"/>
<path d="M178.412 151.26C178.54 155.181 178.035 158.687 178.035 158.687L177.447 171.422C177.447 171.422 167.323 172.5 160.852 167.999C160.852 167.999 163.021 154.615 167.85 150.559C172.438 146.698 178.412 146.977 181.448 149.473C181.448 149.473 181.026 150.642 180.461 150.913C179.896 151.192 178.412 151.26 178.412 151.26Z" fill="#4A1A1A"/>
<path d="M179.075 157.405C178.141 156.214 177.38 156.402 176.965 157.058C176.415 157.925 177.523 159.735 178.035 160.044C179.082 160.67 179.926 160.602 180.009 159.758" fill="#FFCBBD"/>
<path d="M180.649 163.942C179.542 163.942 179.188 163.015 179.188 163.015" stroke="#E88872" stroke-width="0.5" stroke-miterlimit="10" stroke-linejoin="round"/>
<path d="M181.417 154.397C181.741 154.661 182.043 155.151 181.862 155.505C181.809 155.603 181.711 155.656 181.606 155.641C180.883 155.573 180.747 153.839 181.417 154.397Z" fill="#28364C"/>
<path d="M181.327 153.07C180.604 153.07 180.152 153.635 179.881 154.208" stroke="#28364C" stroke-width="0.5" stroke-miterlimit="10" stroke-linecap="round"/>
<path d="M182.005 159.396L183.708 158.845C183.708 158.845 184.378 160.941 183.58 161.213C182.698 161.514 182.005 159.396 182.005 159.396Z" fill="white"/>
<path d="M172.716 148.282C173.394 148.108 173.861 147.399 173.846 146.706C173.824 146.005 173.372 145.356 172.754 145.032C172.136 144.7 171.39 144.67 170.72 144.858C170.464 144.926 170.215 145.032 169.997 145.19C169.123 145.839 169.146 147.234 169.763 148.131C170.019 148.493 170.366 148.817 170.803 148.915C171.232 149.013 172.129 148.862 172.641 148.561" fill="#4A1A1A"/>
<path d="M182.231 154.284C182.419 154.389 184.446 155.264 184.453 156.078C184.461 156.538 183.338 157.036 183.338 157.036" fill="#FFCBBD"/>
<path d="M208.794 209.077C209.999 210.374 210.398 211.655 210.888 212.703C210.911 212.749 210.933 212.801 210.933 212.854C210.941 213.095 210.579 213.118 210.353 213.028C209.841 212.832 209.366 212.553 208.944 212.191C208.779 212.047 208.62 211.897 208.432 211.784C208.086 211.588 207.679 211.565 207.28 211.512C205.66 211.309 204.033 210.509 203.242 209.077" fill="#FFCBBD"/>
<path d="M208.794 209.077C209.622 209.846 210.217 210.841 210.677 211.866L211.031 212.62C211.054 212.711 211.114 212.794 211.091 212.922C211.069 213.058 210.941 213.163 210.85 213.194C210.654 213.261 210.496 213.239 210.323 213.194C209.765 212.99 209.261 212.696 208.816 212.319C208.598 212.123 208.424 211.949 208.191 211.859C207.965 211.768 207.694 211.731 207.415 211.693C206.85 211.625 206.285 211.497 205.75 211.278C204.695 210.856 203.724 210.102 203.249 209.069C203.859 210.019 204.824 210.653 205.856 211.007C206.375 211.173 206.91 211.301 207.453 211.354C207.731 211.384 208.025 211.414 208.319 211.52C208.62 211.633 208.854 211.859 209.057 212.025C209.457 212.379 209.931 212.666 210.428 212.854C210.526 212.892 210.654 212.899 210.73 212.869C210.767 212.854 210.767 212.847 210.767 212.847C210.775 212.839 210.745 212.786 210.737 212.749C210.617 212.492 210.519 212.228 210.413 211.972C210.006 210.947 209.502 209.951 208.794 209.077Z" fill="#E88872"/>
<path d="M80.4788 316.816L79.8008 338.335L80.5014 345.106L106.137 344.97C106.785 344.97 107.305 344.442 107.305 343.794C107.305 343.311 107.004 342.874 106.552 342.701L95.1161 337.438L96.8412 315.044" fill="#FFCBBD"/>
<path d="M108.45 344.684C108.179 343.832 107.682 342.881 107.177 342.663L95.0482 337.438C88.3661 340.152 79.7103 338.079 79.7103 338.079L79.0474 347.217C79.0474 347.519 79.296 347.76 79.5973 347.76L108.239 347.609C108.842 347.602 108.465 344.714 108.45 344.684Z" fill="#18277A"/>
<path d="M97.6847 337.958C97.0067 338.848 96.4341 339.813 95.9746 340.831" stroke="#5565AA" stroke-width="0.75" stroke-miterlimit="10"/>
<path d="M99.2066 338.878C98.506 339.85 98.2197 340.416 97.7979 341.321" stroke="#5565AA" stroke-width="0.75" stroke-miterlimit="10"/>
<path d="M100.502 339.541C100.028 340.182 99.5532 341.072 99.1841 341.781" stroke="#5565AA" stroke-width="0.75" stroke-miterlimit="10"/>
<path d="M79.2207 345.784L108.578 345.634" stroke="#5565AA" stroke-width="0.75" stroke-miterlimit="10"/>
<path d="M79.4844 341.411C79.4844 341.411 86.287 341.456 86.8972 345.739" stroke="#5565AA" stroke-width="0.75" stroke-miterlimit="10"/>
<path d="M104.698 341.592C104.698 341.592 102.74 344.382 102.355 345.664" stroke="#5565AA" stroke-width="0.75" stroke-miterlimit="10"/>
<path d="M82.8515 239.802C82.8515 239.802 96.4718 265.355 100.796 281.431C105.12 297.498 99.3721 333.698 99.3721 333.698H78.1733C78.1733 333.698 82.3995 294.414 77.3974 281.431C72.3952 268.447 54.481 234.29 54.481 234.29" fill="#ADBBF9"/>
<path d="M81.0736 333.698C81.0736 333.698 84.5465 292.831 82.4372 282.735C80.3203 272.639 65.668 249.144 65.668 249.144" stroke="#525BCE" stroke-width="0.75" stroke-miterlimit="10"/>
<path d="M56.191 304.85L43.6631 322.131L40.2505 328.02L61.0576 343.002C61.5849 343.379 62.3156 343.258 62.6923 342.738C62.9786 342.346 62.9861 341.818 62.7224 341.411L56.5677 330.425L70.4516 312.299" fill="#FFCBBD"/>
<path d="M63.1068 344.141C63.3855 343.296 63.5437 342.226 63.265 341.758L56.5302 330.395C49.5317 328.654 43.7536 321.883 43.7536 321.883L37.8475 328.88C37.6742 329.129 37.727 329.468 37.9756 329.641L61.2234 346.38C61.7056 346.727 63.0992 344.163 63.1068 344.141Z" fill="#18277A"/>
<path d="M58.3456 332.363C57.2758 332.68 56.2438 333.125 55.272 333.683" stroke="#5565AA" stroke-width="0.75" stroke-miterlimit="10"/>
<path d="M59.0464 333.999C57.9013 334.376 57.3439 334.663 56.4775 335.145" stroke="#5565AA" stroke-width="0.75" stroke-miterlimit="10"/>
<path d="M59.694 335.296C58.9331 335.538 58.0291 335.975 57.3135 336.337" stroke="#5565AA" stroke-width="0.75" stroke-miterlimit="10"/>
<path d="M38.8115 327.817L62.647 344.978" stroke="#5565AA" stroke-width="0.75" stroke-miterlimit="10"/>
<path d="M41.5991 324.439C41.5991 324.439 47.0683 328.48 45.0494 332.303" stroke="#5565AA" stroke-width="0.75" stroke-miterlimit="10"/>
<path d="M61.8866 339.428C61.8866 339.428 58.6623 340.529 57.6001 341.336" stroke="#5565AA" stroke-width="0.75" stroke-miterlimit="10"/>
<path d="M48.8913 234.29C44.8535 245.744 48.8913 254.754 48.8913 254.754C48.8913 254.754 62.6547 279.93 62.6547 285.042C62.6547 289.732 44.9966 316.469 44.9966 316.469L61.1405 329.46C61.1405 329.46 86.4977 302.143 86.0231 283.24C85.428 259.866 72.7192 234.29 72.7192 234.29" fill="#ADBBF9"/>
<path d="M51.9045 235.044C47.8666 246.498 52.7407 254.211 52.7407 254.211C52.7407 254.211 65.6679 280.684 65.6679 285.796C65.6679 290.486 47.3242 318.339 47.3242 318.339" stroke="#525BCE" stroke-width="0.75" stroke-miterlimit="10"/>
<path d="M79.5974 303.96C83.3791 297.016 86.1815 289.642 86.0158 283.233C85.4206 259.859 72.7119 234.283 72.7119 234.283" stroke="#525BCE" stroke-width="0.75" stroke-miterlimit="10"/>
<path d="M50.5786 244.025C50.5786 244.025 57.7805 244.447 60.6055 238.649" stroke="#525BCE" stroke-width="0.75" stroke-miterlimit="10"/>
<path d="M78.1885 247.327C78.1885 247.327 80.1622 247.546 79.9739 246.566C79.7855 245.585 78.1885 240.322 78.1885 240.322" stroke="#525BCE" stroke-width="0.75" stroke-miterlimit="10"/>
<path fill-rule="evenodd" clip-rule="evenodd" d="M87.3415 173.541C88.0797 178.155 87.4997 182.234 83.5597 182.853C79.6198 183.463 74.1506 182.34 73.0809 175.765C72.3275 171.151 74.9341 166.905 78.874 166.295C82.8064 165.676 86.6032 168.926 87.3415 173.541Z" fill="#FFCBBB"/>
<path d="M84.1549 173.578C84.072 174.001 84.1473 174.589 84.524 174.755C84.6295 174.8 84.7425 174.777 84.8178 174.694C85.3451 174.174 84.3206 172.696 84.1549 173.578Z" fill="#28364C"/>
<path d="M82.8369 172.538C83.8087 172.01 84.7353 172.063 85.5564 172.349" stroke="#28364C" stroke-width="0.5" stroke-miterlimit="10" stroke-linecap="round" stroke-linejoin="round"/>
<path d="M86.7087 178.366L84.1398 178.374C84.1398 178.374 83.9891 180.508 85.2623 180.734C86.332 180.915 86.7087 178.366 86.7087 178.366Z" fill="white"/>
<path fill-rule="evenodd" clip-rule="evenodd" d="M81.473 187.904C81.473 187.904 78.4069 188.432 75.5217 187.648C72.1166 186.721 71.1523 185.333 71.1523 185.333L75.8682 175.478L83.1454 178.781L81.473 187.904Z" fill="#FFCBBB"/>
<path d="M82.3773 182.966C82.3773 182.966 79.2057 183.071 77.5635 181.51" stroke="#EF977F" stroke-miterlimit="10"/>
<path fill-rule="evenodd" clip-rule="evenodd" d="M86.5054 173.397C86.5054 173.397 88.4716 176.293 88.3736 176.805C88.2757 177.318 86.8444 177.544 86.8444 177.544" fill="#FFCBBB"/>
<path d="M75.906 179.927C75.4766 180.116 74.9644 180.191 74.55 180.236C73.6234 180.342 72.6667 180.198 71.838 179.769C70.3238 178.977 69.352 177.175 69.691 175.494C69.7438 175.222 69.8342 174.951 69.8794 174.672C70.0828 173.382 69.3294 172.153 69.1185 170.864C68.9151 169.612 69.239 168.3 69.9472 167.245C70.6478 166.189 71.71 165.397 72.8927 164.945C73.8344 164.583 74.8664 164.455 75.6499 163.776C76.0115 163.46 76.343 163.105 76.7573 162.849C78.716 161.612 81.5108 162.291 83.2586 163.595C83.4695 163.746 83.6729 163.92 83.9215 163.987C84.3509 164.101 84.8029 163.92 85.2398 164.01C86.9198 164.349 87.658 166.83 87.643 168.315C87.6354 168.753 87.53 169.205 87.2663 169.552C86.8896 170.057 86.2493 170.298 85.624 170.374C84.7502 170.479 83.8462 170.306 82.9874 170.562C82.3847 170.743 81.8724 171.135 81.2848 171.369C80.3884 171.731 79.3337 171.693 78.4598 171.279C78.6331 171.889 78.7612 172.538 78.6708 173.171C78.49 174.355 77.488 174.943 76.4258 175.237C76.7799 176.436 77.0662 177.936 76.6895 179.158C76.5765 179.527 76.2752 179.769 75.906 179.927Z" fill="#14122D"/>
<path d="M77.3673 174.265C77.3673 174.265 76.4256 173.118 75.3182 174.038C73.8869 175.23 75.7476 177.801 76.8852 178.223C78.0152 178.645 78.3542 177.386 78.3542 177.386" fill="#FFCBBB"/>
<path d="M130.892 224.534C132.383 223.275 133.754 221.834 134.96 220.198C136.165 218.562 137.144 216.828 137.905 215.033L133.136 212.485C133.799 210.803 134.229 209.062 134.417 207.305L139.826 207.282C140.165 203.309 139.562 199.297 138.071 195.595L132.895 197.163C132.195 195.542 131.283 194.004 130.153 192.594L133.958 188.756C132.7 187.263 131.261 185.891 129.626 184.685C127.991 183.478 126.259 182.498 124.466 181.737L121.919 186.509C120.239 185.846 118.499 185.416 116.744 185.228L116.721 179.814C112.751 179.475 108.744 180.078 105.045 181.571L106.612 186.751C104.992 187.452 103.455 188.364 102.046 189.495L98.2119 185.688C96.7203 186.947 95.3493 188.387 94.1439 190.023C92.9386 191.659 91.9593 193.393 91.1984 195.188L95.967 197.737C95.3041 199.418 94.8747 201.16 94.6863 202.916L89.2774 202.939C88.9384 206.913 89.541 210.924 91.0327 214.626L96.2081 213.058C96.9087 214.679 97.8202 216.217 98.9502 217.627L95.1459 221.465C96.4039 222.958 97.8428 224.33 99.4775 225.536C101.112 226.743 102.845 227.723 104.638 228.485L107.184 223.712C108.864 224.375 110.604 224.805 112.36 224.994L112.382 230.407C116.352 230.747 120.36 230.143 124.059 228.651L122.492 223.471C124.112 222.769 125.648 221.857 127.057 220.726L130.892 224.534ZM108.864 212.817C104.615 209.672 103.711 203.678 106.853 199.425C109.994 195.173 115.983 194.268 120.232 197.412C124.481 200.556 125.385 206.551 122.243 210.803C119.102 215.056 113.113 215.953 108.864 212.817Z" fill="#ADBBF9"/>
<path d="M115.983 223.365C118.198 223.553 128.194 224.571 128.104 225.167C128.021 225.74 124.639 225.929 124.767 226.238C124.947 226.675 127.494 227.06 128.948 227.143C130.236 227.218 132.3 227.55 132.338 228.115C132.413 229.193 125.332 228.696 125.332 228.696C125.354 229.02 133.046 227.806 133.204 228.703C133.43 229.993 125.234 230.626 124.97 230.935C124.97 230.935 131.923 228.409 132.097 229.367C132.262 230.324 126.108 232.73 124.149 232.767C125.754 232.436 130.484 229.766 130.605 230.468C130.726 231.161 126.545 232.978 125.867 233.092C120.269 234.019 114.544 233.469 114.544 233.469" fill="#FFCBBD"/>
<path d="M81.5933 187.271C81.5933 187.271 79.4463 188.289 76.1919 186.879C72.6588 185.341 71.913 183.576 71.913 183.576C71.913 183.576 52.7482 185.273 45.7422 238.49L84.9833 243.361C84.9833 243.361 88.1398 224.338 87.6351 208.949C87.3187 199.147 83.5143 191.524 81.5933 187.271Z" fill="#0E32AE"/>
<path d="M70.0825 208.579C70.0825 208.579 76.1167 228.816 92.4189 233.197C106.943 237.095 118.266 237.08 118.266 237.08L119.848 223.44C119.848 223.44 102.099 220.251 94.7919 215.418C89.2323 211.738 88.1475 199.938 86.7387 195.769C84.7876 189.978 81.5935 187.286 81.5935 187.286" fill="#0E32AE"/>
<path d="M70.3535 183.991C70.3535 183.991 71.5589 187.701 77.1486 188.922C81.2317 189.812 82.8363 188.59 82.8363 188.59" stroke="#121649" stroke-width="0.75" stroke-miterlimit="10"/>
<path d="M86.0153 230.897C86.0153 230.897 71.152 224.028 70.3535 204.56" stroke="#121649" stroke-width="0.75" stroke-miterlimit="10"/>
<path d="M116.548 222.769L114.552 236.914" stroke="#121649" stroke-width="0.75" stroke-miterlimit="10"/>
</g>
<defs>
<linearGradient id="paint0_linear_2924_434" x1="168.055" y1="305.18" x2="388.748" y2="84.6817" gradientUnits="userSpaceOnUse">
<stop offset="0.2704" stop-color="white" stop-opacity="0.1"/>
<stop offset="1" stop-color="white" stop-opacity="0.3"/>
</linearGradient>
<linearGradient id="paint1_linear_2924_434" x1="205.318" y1="300.571" x2="416.793" y2="89.2831" gradientUnits="userSpaceOnUse">
<stop offset="0.2704" stop-color="white" stop-opacity="0.1"/>
<stop offset="1" stop-color="white" stop-opacity="0.3"/>
</linearGradient>
</defs>
</svg>
