<svg width="128" height="37" viewBox="0 0 128 37" fill="none" xmlns="http://www.w3.org/2000/svg">
    <path
        d="M122.871 36.8334H5.12862C2.5383 36.8334 0.418945 34.7709 0.418945 32.25V4.75004C0.418945 2.22921 2.5383 0.166714 5.12862 0.166714H122.871C125.461 0.166714 127.58 2.22921 127.58 4.75004V32.25C127.58 34.7709 125.461 36.8334 122.871 36.8334Z"
        fill="black" />
    <path
        d="M122.871 0.166714H5.12862C2.5383 0.166714 0.418945 2.22921 0.418945 4.75004V32.25C0.418945 34.7709 2.5383 36.8334 5.12862 36.8334H122.871C125.461 36.8334 127.58 34.7709 127.58 32.25V4.75004C127.58 2.22921 125.461 0.166714 122.871 0.166714ZM122.871 0.900047C125.052 0.900047 126.827 2.62741 126.827 4.75004V32.25C126.827 34.373 125.052 36.1004 122.871 36.1004H5.12862C2.94748 36.1004 1.17249 34.373 1.17249 32.25V4.75004C1.17249 2.62741 2.94748 0.900047 5.12862 0.900047H122.871Z"
        fill="#A6A6A6" />
    <path
        d="M45.0838 9.55622C45.0838 10.3242 44.8501 10.9358 44.382 11.392C43.8504 11.9345 43.1575 12.2059 42.3057 12.2059C41.49 12.2059 40.7965 11.9309 40.2261 11.3802C39.6547 10.8298 39.3696 10.1474 39.3696 9.3331C39.3696 8.51846 39.6547 7.83637 40.2261 7.28563C40.7965 6.73527 41.49 6.4599 42.3057 6.4599C42.7105 6.4599 43.098 6.5369 43.4659 6.69053C43.8338 6.84453 44.1289 7.04895 44.3497 7.30498L43.853 7.7887C43.4788 7.35365 42.9637 7.13631 42.3057 7.13631C41.7108 7.13631 41.1964 7.33972 40.7623 7.74681C40.328 8.15436 40.111 8.68282 40.111 9.3331C40.111 9.98338 40.328 10.5118 40.7623 10.9194C41.1964 11.3265 41.7108 11.5299 42.3057 11.5299C42.9368 11.5299 43.463 11.3254 43.8842 10.9158C44.1577 10.649 44.3158 10.2781 44.3581 9.80179H42.3057V9.14115H45.0444C45.0709 9.28479 45.0838 9.42266 45.0838 9.55622Z"
        fill="white" />
    <path
        d="M45.0842 9.55634H44.99C44.9893 10.3068 44.7641 10.8897 44.3159 11.3273L44.3149 11.3281L44.3145 11.3288C43.7997 11.8526 43.1381 12.1133 42.3062 12.1144C41.5122 12.1133 40.8477 11.8498 40.2928 11.3155C39.7391 10.7802 39.4653 10.1267 39.4643 9.33323C39.4653 8.53939 39.7391 7.88627 40.2928 7.3513C40.8477 6.8167 41.5122 6.55279 42.3062 6.55169C42.6988 6.55169 43.0726 6.62622 43.4292 6.77481C43.7861 6.9245 44.068 7.12067 44.278 7.36422L44.3502 7.3051L44.2836 7.24029L43.7868 7.72438L43.8534 7.78883L43.9259 7.73016C43.5344 7.27357 42.9847 7.04339 42.3062 7.04477C41.6892 7.04403 41.1465 7.25853 40.6975 7.68112C40.2443 8.10508 40.0165 8.66323 40.0173 9.33323C40.0165 10.0032 40.2443 10.5614 40.6975 10.9853C41.1465 11.4079 41.6892 11.6224 42.3062 11.6217C42.9582 11.6228 43.5138 11.4076 43.9513 10.9808C44.2435 10.6957 44.409 10.3008 44.4525 9.8098L44.4612 9.71025H42.4004V9.23294H45.0449V9.14128L44.9521 9.15741C44.9779 9.29638 44.99 9.42847 44.99 9.55634H45.0842H45.1784C45.1784 9.41701 45.1651 9.27383 45.1375 9.12487L45.1236 9.04961H42.212V9.80192V9.89359H44.3586V9.80192L44.2647 9.79404C44.2232 10.2553 44.0723 10.6026 43.8181 10.8511C43.4133 11.2436 42.9166 11.4373 42.3062 11.4384C41.7333 11.4376 41.2473 11.2457 40.8282 10.8536C40.4132 10.4629 40.2067 9.96417 40.2057 9.33323C40.2067 8.70228 40.4132 8.20353 40.8282 7.81284C41.2473 7.42078 41.7333 7.22883 42.3062 7.2281C42.9431 7.22957 43.4241 7.43435 43.7813 7.84795L43.8476 7.92458L44.4168 7.36991L44.4778 7.31051L44.4222 7.24634C44.1908 6.97785 43.8825 6.76473 43.5035 6.60651C43.1238 6.44783 42.7231 6.36836 42.3062 6.36836C41.4688 6.36763 40.7461 6.65408 40.16 7.22095C39.5716 7.78672 39.2751 8.49787 39.2759 9.33323C39.2751 10.1682 39.5716 10.8797 40.1604 11.4459C40.7461 12.0124 41.4688 12.2985 42.3062 12.2977C43.1782 12.2985 43.9016 12.0166 44.4506 11.4555L44.3825 11.3922L44.4491 11.457C44.937 10.9825 45.1791 10.3416 45.1784 9.55634H45.0842Z"
        fill="white" />
    <path
        d="M49.4258 7.25887H46.852V9.00273H49.173V9.66365H46.852V11.4075H49.4258V12.0832H46.1265V6.58319H49.4258V7.25887Z"
        fill="white" />
    <path
        d="M49.4253 7.25924V7.16757H46.7573V9.09477H49.0783V9.57208L46.7573 9.57236V11.4996H49.3311V11.9919H46.2201V6.67523H49.3311V7.25924H49.4253V7.16757V7.25924H49.5194V6.58356V6.4919H46.0317V12.1752H49.5194V11.4079V11.3162H46.9457V9.75569H49.2667V9.00311V8.91144H46.9457V7.35091H49.5194V7.25924H49.4253Z"
        fill="white" />
    <path d="M52.4883 12.0832H51.7616V7.25887H50.1831V6.58319H54.0668V7.25887H52.4883V12.0832Z" fill="white" />
    <path
        d="M52.4878 12.0836V11.9919H51.8553V7.16757H50.2768V6.67523H53.9721V7.16757H52.3936V12.0836H52.4878V11.9919V12.0836H52.582V7.35091H54.1605V6.58356V6.4919H50.0884V7.25924V7.35091H51.6669V12.1752H52.4878H52.582V12.0836H52.4878Z"
        fill="white" />
    <path d="M56.8765 12.0832V6.58319H57.6024V12.0832H56.8765Z" fill="white" />
    <path
        d="M56.8769 12.0836H56.9711V6.67523H57.5087V11.9919H56.8769V12.0836H56.9711H56.8769V12.1752H57.6028H57.697V6.4919H56.8769H56.7827V12.1752H56.8769V12.0836Z"
        fill="white" />
    <path d="M60.8236 12.0832H60.097V7.25887H58.5186V6.58319H62.4021V7.25887H60.8236V12.0832Z" fill="white" />
    <path
        d="M60.8241 12.0836V11.9919H60.1916V7.16757H58.6132V6.67523H62.3084V7.16757H60.7299V12.0836H60.8241V11.9919V12.0836H60.9183V7.35091H62.4968V6.58356V6.4919H58.4248V7.25924V7.35091H60.0032V12.1752H60.8241H60.9183V12.0836H60.8241Z"
        fill="white" />
    <path
        d="M66.1466 10.9119C66.5649 11.324 67.0767 11.5299 67.682 11.5299C68.2873 11.5299 68.7994 11.324 69.2171 10.9119C69.6358 10.4997 69.8455 9.97293 69.8455 9.3331C69.8455 8.69327 69.6358 8.16646 69.2171 7.75433C68.7994 7.34219 68.2873 7.13631 67.682 7.13631C67.0767 7.13631 66.5649 7.34219 66.1466 7.75433C65.7289 8.16646 65.5192 8.69327 65.5192 9.3331C65.5192 9.97293 65.7289 10.4997 66.1466 10.9119ZM69.7543 11.3723C69.1986 11.9284 68.5076 12.2059 67.682 12.2059C66.8556 12.2059 66.1649 11.9284 65.6105 11.3723C65.0545 10.8169 64.7778 10.137 64.7778 9.3331C64.7778 8.52918 65.0545 7.8492 65.6105 7.29388C66.1649 6.73774 66.8556 6.4599 67.682 6.4599C68.5033 6.4599 69.1924 6.73921 69.7506 7.29746C70.308 7.85571 70.5869 8.53423 70.5869 9.3331C70.5869 10.137 70.3087 10.8169 69.7543 11.3723Z"
        fill="white" />
    <path
        d="M66.1465 10.912L66.0795 10.9764C66.5134 11.4051 67.0546 11.6228 67.682 11.6217C68.3089 11.6228 68.8509 11.4051 69.284 10.9764C69.7207 10.5474 69.9404 9.9924 69.9397 9.33323C69.9404 8.67405 69.7207 8.11901 69.284 7.69001C68.8509 7.26138 68.3089 7.04367 67.682 7.04477C67.0546 7.04367 66.5134 7.26138 66.0795 7.69001C65.6439 8.11901 65.4239 8.67405 65.425 9.33323C65.4239 9.9924 65.6439 10.5474 66.0795 10.9764L66.1465 10.912L66.2135 10.8476C65.8139 10.4518 65.6141 9.95409 65.6134 9.33323C65.6141 8.71237 65.8139 8.21462 66.2135 7.8189C66.6167 7.42326 67.0983 7.22921 67.682 7.2281C68.2651 7.22921 68.7479 7.42326 69.1501 7.8189C69.5504 8.21462 69.7502 8.71237 69.7509 9.33323C69.7502 9.95409 69.5504 10.4518 69.1501 10.8476C68.7479 11.2432 68.2651 11.4373 67.682 11.4384C67.0983 11.4373 66.6167 11.2432 66.2135 10.8476L66.1465 10.912ZM69.7542 11.3724L69.6869 11.3087C69.1468 11.8473 68.4863 12.1133 67.682 12.1144C66.8773 12.1133 66.2168 11.8473 65.6777 11.3087L65.6752 11.3059L65.6777 11.3087C65.1387 10.7684 64.8727 10.1167 64.872 9.33323C64.8727 8.54975 65.1387 7.8981 65.6777 7.35772C66.2168 6.81918 66.8773 6.5528 67.682 6.5517C68.4811 6.5528 69.1401 6.82028 69.6832 7.36166C70.2241 7.90451 70.4916 8.55516 70.4927 9.33323C70.4916 10.1167 70.2248 10.7684 69.6869 11.3087L69.7542 11.3724L69.822 11.4362C70.393 10.8654 70.6818 10.1575 70.6811 9.33323C70.6818 8.51364 70.3918 7.80716 69.8182 7.23388C69.2443 6.6584 68.5253 6.36736 67.682 6.36836C66.8342 6.36736 66.1131 6.65702 65.5427 7.2303V7.22994C64.9706 7.80102 64.6828 8.50896 64.6836 9.33323C64.6828 10.1575 64.9706 10.8654 65.5427 11.4365L65.5453 11.4391L65.5427 11.4362C66.1131 12.0094 66.8342 12.2985 67.682 12.2977C68.5293 12.2985 69.2505 12.0094 69.822 11.4362L69.7542 11.3724Z"
        fill="white" />
    <path
        d="M71.606 12.0832V6.58319H72.4898L75.2365 10.8618H75.2677L75.2365 9.80188V6.58319H75.9632V12.0832H75.2052L72.3315 7.59721H72.3003L72.3315 8.65752V12.0832H71.606Z"
        fill="white" />
    <path
        d="M71.6064 12.0836H71.7006V6.67523H72.4379L75.1846 10.9539H75.2682H75.3649L75.3311 9.80088V6.67523H75.8694V11.9919H75.2579L72.3842 7.50592H72.3007H72.204L72.2378 8.65936V11.9919H71.6064V12.0836H71.7006H71.6064V12.1752H72.332H72.4262V8.65642L72.3949 7.59511L72.3007 7.59758V7.68925H72.332V7.59758L72.2521 7.64635L75.1533 12.1752H75.9636H76.0578V6.4919H75.2369H75.1427V9.80336L75.174 10.8647L75.2682 10.8622V10.7705H75.2369V10.8622L75.3168 10.8135L72.5424 6.4919H71.6064H71.5122V12.1752H71.6064V12.0836Z"
        fill="white" />
    <path
        d="M101.146 27.6666H102.903V16.2071H101.146V27.6666ZM116.977 20.3351L114.962 25.3033H114.902L112.811 20.3351H110.917L114.053 27.2791L112.265 31.1416H114.099L118.931 20.3351H116.977ZM107.009 26.365C106.433 26.365 105.63 26.0849 105.63 25.3918C105.63 24.5073 106.631 24.1682 107.493 24.1682C108.267 24.1682 108.629 24.3304 109.099 24.5517C108.963 25.613 108.024 26.365 107.009 26.365ZM107.221 20.0844C105.949 20.0844 104.631 20.63 104.085 21.8389L105.645 22.4727C105.979 21.8389 106.6 21.6323 107.251 21.6323C108.16 21.6323 109.084 22.1634 109.099 23.1069V23.2247C108.781 23.0478 108.1 22.7825 107.266 22.7825C105.585 22.7825 103.873 23.6815 103.873 25.3623C103.873 26.8956 105.252 27.8835 106.796 27.8835C107.979 27.8835 108.629 27.3675 109.039 26.7632H109.099V27.6476H110.796V23.254C110.796 21.2198 109.236 20.0844 107.221 20.0844ZM96.3588 21.73H93.8589V17.802H96.3588C97.6728 17.802 98.4188 18.8608 98.4188 19.766C98.4188 20.6541 97.6728 21.73 96.3588 21.73ZM96.3136 16.2071H92.1022V27.6666H93.8589V23.325H96.3136C98.2615 23.325 100.176 21.9524 100.176 19.766C100.176 17.5797 98.2615 16.2071 96.3136 16.2071ZM73.3483 26.3671C72.134 26.3671 71.1174 25.3777 71.1174 24.0189C71.1174 22.6457 72.134 21.6413 73.3483 21.6413C74.5471 21.6413 75.4879 22.6457 75.4879 24.0189C75.4879 25.3777 74.5471 26.3671 73.3483 26.3671ZM75.3665 20.9767H75.3057C74.9113 20.519 74.1522 20.1055 73.1963 20.1055C71.1932 20.1055 69.3572 21.8185 69.3572 24.0189C69.3572 26.2046 71.1932 27.9029 73.1963 27.9029C74.1522 27.9029 74.9113 27.4893 75.3057 27.017H75.3665V27.5781C75.3665 29.0699 74.5471 29.8673 73.2268 29.8673C72.1495 29.8673 71.4817 29.1139 71.2083 28.479L69.6758 29.0992C70.1159 30.1329 71.2845 31.4031 73.2268 31.4031C75.2906 31.4031 77.0358 30.2214 77.0358 27.3418V20.3418H75.3665V20.9767ZM78.2496 27.6666H80.0099V16.2068H78.2496V27.6666ZM82.6049 23.886C82.5594 22.3796 83.8037 21.6119 84.699 21.6119C85.3975 21.6119 85.989 21.9513 86.1859 22.4391L82.6049 23.886ZM88.0679 22.5866C87.7344 21.715 86.7172 20.1055 84.6382 20.1055C82.5744 20.1055 80.8598 21.6857 80.8598 24.0042C80.8598 26.1899 82.5594 27.9029 84.8354 27.9029C86.6719 27.9029 87.7344 26.81 88.1743 26.1751L86.8085 25.2889C86.3536 25.9388 85.7309 26.3671 84.8354 26.3671C83.9402 26.3671 83.303 25.9683 82.8931 25.1858L88.2497 23.0295L88.0679 22.5866ZM45.3905 21.3018V22.9557H49.4573C49.3359 23.886 49.0172 24.5653 48.5316 25.0379C47.9399 25.6141 47.0142 26.2489 45.3905 26.2489C42.8865 26.2489 40.9291 24.2849 40.9291 21.8482C40.9291 19.4115 42.8865 17.4472 45.3905 17.4472C46.7411 17.4472 47.7272 17.9642 48.4557 18.6288L49.6545 17.4622C48.6379 16.5169 47.2872 15.7933 45.3905 15.7933C41.9608 15.7933 39.0776 18.5106 39.0776 21.8482C39.0776 25.1858 41.9608 27.9029 45.3905 27.9029C47.242 27.9029 48.6379 27.3125 49.7304 26.2046C50.8533 25.1117 51.2025 23.5759 51.2025 22.3356C51.2025 21.9513 51.1723 21.5972 51.1112 21.3018H45.3905ZM55.8261 26.3671C54.6118 26.3671 53.5647 25.3924 53.5647 24.0042C53.5647 22.6012 54.6118 21.6413 55.8261 21.6413C57.0399 21.6413 58.087 22.6012 58.087 24.0042C58.087 25.3924 57.0399 26.3671 55.8261 26.3671ZM55.8261 20.1055C53.6103 20.1055 51.8044 21.7447 51.8044 24.0042C51.8044 26.2489 53.6103 27.9029 55.8261 27.9029C58.0414 27.9029 59.8473 26.2489 59.8473 24.0042C59.8473 21.7447 58.0414 20.1055 55.8261 20.1055ZM64.5985 26.3671C63.3848 26.3671 62.3375 25.3924 62.3375 24.0042C62.3375 22.6012 63.3848 21.6413 64.5985 21.6413C65.8124 21.6413 66.8595 22.6012 66.8595 24.0042C66.8595 25.3924 65.8124 26.3671 64.5985 26.3671ZM64.5985 20.1055C62.3828 20.1055 60.5773 21.7447 60.5773 24.0042C60.5773 26.2489 62.3828 27.9029 64.5985 27.9029C66.814 27.9029 68.6198 26.2489 68.6198 24.0042C68.6198 21.7447 66.814 20.1055 64.5985 20.1055Z"
        fill="white" />
    <path
        d="M10.3184 29.8568L10.2484 29.7916C9.97432 29.5093 9.8125 29.0711 9.8125 28.5036V28.6371V8.36413C9.8125 8.36229 9.8125 8.36092 9.8125 8.35945C9.8125 8.3612 9.8125 8.36266 9.8125 8.36449V8.49842C9.8125 7.88389 10.0012 7.42097 10.3173 7.1434L21.9877 18.5004L10.3184 29.8568ZM9.8125 8.35835C9.8125 8.30784 9.81391 8.2588 9.81655 8.2105C9.81391 8.25844 9.8125 8.30784 9.8125 8.35835ZM9.81655 8.2083C9.81655 8.20766 9.81655 8.20692 9.81683 8.20619C9.81655 8.20692 9.81655 8.20766 9.81655 8.2083ZM9.81683 8.20188C9.81683 8.20151 9.81683 8.20115 9.81683 8.20078C9.81683 8.20115 9.81683 8.20151 9.81683 8.20188Z"
        fill="url(#paint0_linear_2924_894)" />
    <path
        d="M25.8768 22.4218L25.9656 22.3727L30.5744 19.8243C31.0138 19.5812 31.3066 19.2865 31.4527 18.9746C31.307 19.2865 31.0141 19.5816 30.5744 19.8247L25.9656 22.3731L25.8768 22.4218ZM25.878 22.2875L21.9873 18.5005L25.8776 14.7142L30.5744 17.311C31.1708 17.6408 31.5057 18.0658 31.5616 18.5002C31.5616 18.5005 31.5616 18.5013 31.5616 18.5019C31.5057 18.9352 31.1708 19.3606 30.5744 19.6904L25.878 22.2875Z"
        fill="url(#paint1_linear_2924_894)" />
    <path
        d="M11.1504 30.2899C10.8244 30.2899 10.5399 30.1868 10.3181 29.992L10.3184 29.9916C10.5403 30.1864 10.8251 30.2899 11.1511 30.2899C11.1794 30.2899 11.2081 30.2892 11.2372 30.2878C11.2077 30.2892 11.1786 30.2899 11.1504 30.2899ZM11.1507 30.1556C10.8247 30.156 10.5403 30.0525 10.3184 29.8577V29.8574L21.9877 18.5011L25.8784 22.2881L12.206 29.8481C11.8277 30.0568 11.4693 30.1556 11.1507 30.1556ZM10.3151 29.9895C10.2945 29.9713 10.2743 29.9519 10.2544 29.9319L10.3151 29.9895Z"
        fill="url(#paint2_linear_2924_894)" />
    <path
        d="M21.9883 18.5007L10.3179 7.14363C10.5397 6.94921 10.8238 6.84608 11.1494 6.84608C11.4688 6.84608 11.8275 6.94527 12.2065 7.15436L25.8786 14.7144L21.9883 18.5007ZM25.9665 14.6289L12.2065 7.02052C11.8275 6.81134 11.4688 6.71216 11.1494 6.71216C11.1479 6.71216 11.1469 6.71216 11.1454 6.71216C11.1472 6.71216 11.1487 6.71216 11.1509 6.71216C11.4696 6.71216 11.8279 6.81097 12.2065 7.02016L25.9665 14.6289Z"
        fill="url(#paint3_linear_2924_894)" />
    <path
        d="M11.2373 30.2871C11.5334 30.2706 11.8613 30.1714 12.2061 29.9813L25.8773 22.4216L12.2061 29.9813C11.8616 30.1718 11.5334 30.2706 11.2373 30.2871ZM10.3181 29.9913L10.3152 29.9888C10.3163 29.9896 10.3174 29.9906 10.3181 29.9913ZM10.2545 29.9312L10.2485 29.9255V29.9251C10.2508 29.9272 10.2526 29.9293 10.2545 29.9312Z"
        fill="black" />
    <path d="M25.877 22.4218L25.9657 22.3727L25.877 22.4218Z" fill="url(#paint4_linear_2924_894)" />
    <path
        d="M11.1512 30.2899C10.8252 30.2899 10.5403 30.1864 10.3185 29.9916L10.3181 29.992C10.3174 29.9913 10.3163 29.9903 10.3152 29.9895L10.2545 29.9319C10.2526 29.93 10.2508 29.9279 10.2485 29.9258L10.3185 29.8577C10.5403 30.0525 10.8248 30.156 11.1508 30.1556C11.4694 30.1556 11.8278 30.0568 12.2061 29.8481L25.8785 22.2881L25.9661 22.3733L25.8773 22.4223L12.2061 29.982C11.8613 30.1721 11.5334 30.2713 11.2373 30.2878C11.2082 30.2892 11.1795 30.2899 11.1512 30.2899Z"
        fill="url(#paint5_linear_2924_894)" />
    <path
        d="M10.2484 29.9257C9.97432 29.6434 9.8125 29.2052 9.8125 28.6377V28.6373C9.8125 29.2052 9.97432 29.6431 10.2484 29.9253V29.9257Z"
        fill="black" />
    <path
        d="M10.2484 29.9254C9.97432 29.6432 9.8125 29.2053 9.8125 28.6374V28.5039C9.8125 29.0714 9.97432 29.5096 10.2484 29.7919L10.3184 29.857L10.2484 29.9254Z"
        fill="url(#paint6_linear_2924_894)" />
    <path d="M10.2485 29.9254L10.3185 29.857V29.8573L10.2485 29.9254Z" fill="url(#paint7_linear_2924_894)" />
    <path
        d="M31.4531 18.975C31.5256 18.8202 31.562 18.6613 31.562 18.5022C31.562 18.502 31.562 18.5016 31.562 18.5016C31.562 18.6609 31.5256 18.8199 31.4531 18.975Z"
        fill="black" />
    <path
        d="M25.966 22.3735L25.8784 22.2883L30.5748 19.6912C31.1712 19.3615 31.5061 18.936 31.5621 18.5027C31.5621 18.6618 31.5256 18.8207 31.4532 18.9755C31.3071 19.2873 31.0142 19.582 30.5748 19.8251L25.966 22.3735Z"
        fill="url(#paint8_linear_2924_894)" />
    <path
        d="M31.5622 18.5009V18.5005C31.5619 18.021 31.2326 17.5416 30.575 17.1777L25.9662 14.6293H25.9658L25.9662 14.629L30.575 17.1774C31.2333 17.5412 31.563 18.0213 31.5622 18.5009Z"
        fill="#404040" />
    <path
        d="M31.5619 18.5004C31.506 18.0661 31.1711 17.6411 30.5747 17.3112L25.8779 14.7145L25.9655 14.6293H25.9659L30.5747 17.1777C31.2323 17.5415 31.5616 18.0209 31.5619 18.5004Z"
        fill="url(#paint9_linear_2924_894)" />
    <path
        d="M9.8125 8.36005C9.8125 8.35968 9.8125 8.35931 9.8125 8.35895C9.8125 8.35931 9.8125 8.35968 9.8125 8.36005ZM9.81655 8.21109C9.81655 8.21035 9.81655 8.20962 9.81655 8.20889C9.81655 8.20962 9.81655 8.21035 9.81655 8.21109ZM9.81683 8.20678C9.81683 8.20531 9.81683 8.20394 9.81683 8.20247C9.81683 8.20394 9.81683 8.20531 9.81683 8.20678ZM9.81683 8.20137C9.87137 7.25968 10.3975 6.71573 11.1419 6.71252C10.8191 6.71435 10.5381 6.81748 10.318 7.01044V7.01007L10.3154 7.01264C10.2922 7.03299 10.2702 7.05453 10.2484 7.07671C10.0012 7.33127 9.84518 7.7126 9.81683 8.20137Z"
        fill="#404040" />
    <path
        d="M9.8125 8.4989V8.36498C9.8125 8.36314 9.8125 8.36168 9.8125 8.35994C9.8125 8.35957 9.8125 8.3592 9.8125 8.35884C9.8125 8.30833 9.81391 8.25892 9.81655 8.21098C9.81655 8.21024 9.81655 8.20951 9.81655 8.20878C9.81655 8.20814 9.81655 8.2074 9.81683 8.20667C9.81683 8.2052 9.81683 8.20383 9.81683 8.20236C9.81683 8.20199 9.81683 8.20163 9.81683 8.20126C9.84518 7.71249 10.0012 7.33116 10.2484 7.0766L10.3173 7.14389C10.0012 7.42145 9.8125 7.88437 9.8125 8.4989ZM10.3154 7.01253L10.318 7.00996C10.3173 7.01106 10.3162 7.01179 10.3154 7.01253Z"
        fill="url(#paint10_linear_2924_894)" />
    <path
        d="M25.8781 14.7146L12.2061 7.15458C11.827 6.94548 11.4683 6.8463 11.1489 6.8463C10.8233 6.8463 10.5392 6.94942 10.3174 7.14385L10.2485 7.07657C10.2703 7.05438 10.2923 7.03284 10.3155 7.01249C10.3163 7.01176 10.3174 7.01102 10.3181 7.01029C10.5382 6.81733 10.8193 6.71421 11.142 6.71237C11.1427 6.71237 11.1438 6.71237 11.1449 6.71237C11.1464 6.71237 11.1474 6.71237 11.1489 6.71237C11.4683 6.71237 11.827 6.81156 12.2061 7.02074L25.9661 14.6291L25.9657 14.6294L25.8781 14.7146Z"
        fill="url(#paint11_linear_2924_894)" />
    <defs>
        <linearGradient id="paint0_linear_2924_894" x1="20.9529" y1="8.15027" x2="5.57459" y2="23.9525"
            gradientUnits="userSpaceOnUse">
            <stop stop-color="#00A0FF" />
            <stop offset="0.00657445" stop-color="#00A1FF" />
            <stop offset="0.2601" stop-color="#00BEFF" />
            <stop offset="0.5122" stop-color="#00D2FF" />
            <stop offset="0.7604" stop-color="#00DFFF" />
            <stop offset="1" stop-color="#00E3FF" />
        </linearGradient>
        <linearGradient id="paint1_linear_2924_894" x1="32.2883" y1="18.5011" x2="9.4963" y2="18.5011"
            gradientUnits="userSpaceOnUse">
            <stop stop-color="#FFE000" />
            <stop offset="0.4087" stop-color="#FFBD00" />
            <stop offset="0.7754" stop-color="#FFA500" />
            <stop offset="1" stop-color="#FF9C00" />
        </linearGradient>
        <linearGradient id="paint2_linear_2924_894" x1="23.8043" y1="20.6052" x2="2.95026" y2="42.0341"
            gradientUnits="userSpaceOnUse">
            <stop stop-color="#FF3A44" />
            <stop offset="1" stop-color="#C31162" />
        </linearGradient>
        <linearGradient id="paint3_linear_2924_894" x1="7.29303" y1="0.328127" x2="16.6052" y2="9.89701"
            gradientUnits="userSpaceOnUse">
            <stop stop-color="#32A071" />
            <stop offset="0.0685" stop-color="#2DA771" />
            <stop offset="0.4762" stop-color="#15CF74" />
            <stop offset="0.8009" stop-color="#06E775" />
            <stop offset="1" stop-color="#00F076" />
        </linearGradient>
        <linearGradient id="paint4_linear_2924_894" x1="32.2884" y1="18.5009" x2="9.4965" y2="18.5009"
            gradientUnits="userSpaceOnUse">
            <stop stop-color="#CCB300" />
            <stop offset="0.4087" stop-color="#CC9700" />
            <stop offset="0.7754" stop-color="#CC8400" />
            <stop offset="1" stop-color="#CC7D00" />
        </linearGradient>
        <linearGradient id="paint5_linear_2924_894" x1="23.8044" y1="20.6051" x2="2.95033" y2="42.0341"
            gradientUnits="userSpaceOnUse">
            <stop stop-color="#CC2E36" />
            <stop offset="1" stop-color="#9C0E4E" />
        </linearGradient>
        <linearGradient id="paint6_linear_2924_894" x1="20.9529" y1="8.15062" x2="5.57467" y2="23.9528"
            gradientUnits="userSpaceOnUse">
            <stop stop-color="#008DE0" />
            <stop offset="0.00657445" stop-color="#008DE0" />
            <stop offset="0.2601" stop-color="#00A7E0" />
            <stop offset="0.5122" stop-color="#00B8E0" />
            <stop offset="0.7604" stop-color="#00C4E0" />
            <stop offset="1" stop-color="#00C7E0" />
        </linearGradient>
        <linearGradient id="paint7_linear_2924_894" x1="23.8049" y1="20.6054" x2="2.95236" y2="42.035"
            gradientUnits="userSpaceOnUse">
            <stop stop-color="#E0333C" />
            <stop offset="1" stop-color="#AB0F56" />
        </linearGradient>
        <linearGradient id="paint8_linear_2924_894" x1="32.2888" y1="18.5019" x2="9.49675" y2="18.5019"
            gradientUnits="userSpaceOnUse">
            <stop stop-color="#E0C500" />
            <stop offset="0.4087" stop-color="#E0A600" />
            <stop offset="0.7754" stop-color="#E09100" />
            <stop offset="1" stop-color="#E08900" />
        </linearGradient>
        <linearGradient id="paint9_linear_2924_894" x1="32.2886" y1="18.5013" x2="9.49666" y2="18.5013"
            gradientUnits="userSpaceOnUse">
            <stop stop-color="#FFE840" />
            <stop offset="0.4087" stop-color="#FFCE40" />
            <stop offset="0.7754" stop-color="#FFBC40" />
            <stop offset="1" stop-color="#FFB540" />
        </linearGradient>
        <linearGradient id="paint10_linear_2924_894" x1="20.9528" y1="8.15075" x2="5.57456" y2="23.9529"
            gradientUnits="userSpaceOnUse">
            <stop stop-color="#40B8FF" />
            <stop offset="0.00657445" stop-color="#40B9FF" />
            <stop offset="0.2601" stop-color="#40CEFF" />
            <stop offset="0.5122" stop-color="#40DDFF" />
            <stop offset="0.7604" stop-color="#40E7FF" />
            <stop offset="1" stop-color="#40EAFF" />
        </linearGradient>
        <linearGradient id="paint11_linear_2924_894" x1="7.29255" y1="0.328341" x2="16.6047" y2="9.89722"
            gradientUnits="userSpaceOnUse">
            <stop stop-color="#65B895" />
            <stop offset="0.0685" stop-color="#62BD95" />
            <stop offset="0.4762" stop-color="#50DB97" />
            <stop offset="0.8009" stop-color="#44ED98" />
            <stop offset="1" stop-color="#40F498" />
        </linearGradient>
    </defs>
</svg>